<?xml version="1.0" encoding="utf-8" standalone="no"?>
<!DOCTYPE svg PUBLIC "-//W3C//DTD SVG 1.1//EN"
  "http://www.w3.org/Graphics/SVG/1.1/DTD/svg11.dtd">
<!-- Created with matplotlib (https://matplotlib.org/) -->
<svg height="345.6pt" version="1.1" viewBox="0 0 460.8 345.6" width="460.8pt" xmlns="http://www.w3.org/2000/svg" xmlns:xlink="http://www.w3.org/1999/xlink">
 <defs>
  <style type="text/css">
*{stroke-linecap:butt;stroke-linejoin:round;}
  </style>
 </defs>
 <g id="figure_1">
  <g id="patch_1">
   <path d="M 0 345.6 
L 460.8 345.6 
L 460.8 0 
L 0 0 
z
" style="fill:#ffffff;"/>
  </g>
  <g id="axes_1">
   <g id="patch_2">
    <path d="M 57.6 307.584 
L 414.72 307.584 
L 414.72 41.472 
L 57.6 41.472 
z
" style="fill:#ffffff;"/>
   </g>
   <g id="matplotlib.axis_1">
    <g id="xtick_1">
     <g id="line2d_1">
      <defs>
       <path d="M 0 0 
L 0 3.5 
" id="m31a30d1a5d" style="stroke:#000000;stroke-width:0.8;"/>
      </defs>
      <g>
       <use style="stroke:#000000;stroke-width:0.8;" x="73.832727" xlink:href="#m31a30d1a5d" y="307.584"/>
      </g>
     </g>
     <g id="text_1">
      <!-- 0 -->
      <defs>
       <path d="M 31.78125 66.40625 
Q 24.171875 66.40625 20.328125 58.90625 
Q 16.5 51.421875 16.5 36.375 
Q 16.5 21.390625 20.328125 13.890625 
Q 24.171875 6.390625 31.78125 6.390625 
Q 39.453125 6.390625 43.28125 13.890625 
Q 47.125 21.390625 47.125 36.375 
Q 47.125 51.421875 43.28125 58.90625 
Q 39.453125 66.40625 31.78125 66.40625 
z
M 31.78125 74.21875 
Q 44.046875 74.21875 50.515625 64.515625 
Q 56.984375 54.828125 56.984375 36.375 
Q 56.984375 17.96875 50.515625 8.265625 
Q 44.046875 -1.421875 31.78125 -1.421875 
Q 19.53125 -1.421875 13.0625 8.265625 
Q 6.59375 17.96875 6.59375 36.375 
Q 6.59375 54.828125 13.0625 64.515625 
Q 19.53125 74.21875 31.78125 74.21875 
z
" id="DejaVuSans-48"/>
      </defs>
      <g transform="translate(70.651477 322.182437)scale(0.1 -0.1)">
       <use xlink:href="#DejaVuSans-48"/>
      </g>
     </g>
    </g>
    <g id="xtick_2">
     <g id="line2d_2">
      <g>
       <use style="stroke:#000000;stroke-width:0.8;" x="117.12" xlink:href="#m31a30d1a5d" y="307.584"/>
      </g>
     </g>
     <g id="text_2">
      <!-- 20 -->
      <defs>
       <path d="M 19.1875 8.296875 
L 53.609375 8.296875 
L 53.609375 0 
L 7.328125 0 
L 7.328125 8.296875 
Q 12.9375 14.109375 22.625 23.890625 
Q 32.328125 33.6875 34.8125 36.53125 
Q 39.546875 41.84375 41.421875 45.53125 
Q 43.3125 49.21875 43.3125 52.78125 
Q 43.3125 58.59375 39.234375 62.25 
Q 35.15625 65.921875 28.609375 65.921875 
Q 23.96875 65.921875 18.8125 64.3125 
Q 13.671875 62.703125 7.8125 59.421875 
L 7.8125 69.390625 
Q 13.765625 71.78125 18.9375 73 
Q 24.125 74.21875 28.421875 74.21875 
Q 39.75 74.21875 46.484375 68.546875 
Q 53.21875 62.890625 53.21875 53.421875 
Q 53.21875 48.921875 51.53125 44.890625 
Q 49.859375 40.875 45.40625 35.40625 
Q 44.1875 33.984375 37.640625 27.21875 
Q 31.109375 20.453125 19.1875 8.296875 
z
" id="DejaVuSans-50"/>
      </defs>
      <g transform="translate(110.7575 322.182437)scale(0.1 -0.1)">
       <use xlink:href="#DejaVuSans-50"/>
       <use x="63.623047" xlink:href="#DejaVuSans-48"/>
      </g>
     </g>
    </g>
    <g id="xtick_3">
     <g id="line2d_3">
      <g>
       <use style="stroke:#000000;stroke-width:0.8;" x="160.407273" xlink:href="#m31a30d1a5d" y="307.584"/>
      </g>
     </g>
     <g id="text_3">
      <!-- 40 -->
      <defs>
       <path d="M 37.796875 64.3125 
L 12.890625 25.390625 
L 37.796875 25.390625 
z
M 35.203125 72.90625 
L 47.609375 72.90625 
L 47.609375 25.390625 
L 58.015625 25.390625 
L 58.015625 17.1875 
L 47.609375 17.1875 
L 47.609375 0 
L 37.796875 0 
L 37.796875 17.1875 
L 4.890625 17.1875 
L 4.890625 26.703125 
z
" id="DejaVuSans-52"/>
      </defs>
      <g transform="translate(154.044773 322.182437)scale(0.1 -0.1)">
       <use xlink:href="#DejaVuSans-52"/>
       <use x="63.623047" xlink:href="#DejaVuSans-48"/>
      </g>
     </g>
    </g>
    <g id="xtick_4">
     <g id="line2d_4">
      <g>
       <use style="stroke:#000000;stroke-width:0.8;" x="203.694545" xlink:href="#m31a30d1a5d" y="307.584"/>
      </g>
     </g>
     <g id="text_4">
      <!-- 60 -->
      <defs>
       <path d="M 33.015625 40.375 
Q 26.375 40.375 22.484375 35.828125 
Q 18.609375 31.296875 18.609375 23.390625 
Q 18.609375 15.53125 22.484375 10.953125 
Q 26.375 6.390625 33.015625 6.390625 
Q 39.65625 6.390625 43.53125 10.953125 
Q 47.40625 15.53125 47.40625 23.390625 
Q 47.40625 31.296875 43.53125 35.828125 
Q 39.65625 40.375 33.015625 40.375 
z
M 52.59375 71.296875 
L 52.59375 62.3125 
Q 48.875 64.0625 45.09375 64.984375 
Q 41.3125 65.921875 37.59375 65.921875 
Q 27.828125 65.921875 22.671875 59.328125 
Q 17.53125 52.734375 16.796875 39.40625 
Q 19.671875 43.65625 24.015625 45.921875 
Q 28.375 48.1875 33.59375 48.1875 
Q 44.578125 48.1875 50.953125 41.515625 
Q 57.328125 34.859375 57.328125 23.390625 
Q 57.328125 12.15625 50.6875 5.359375 
Q 44.046875 -1.421875 33.015625 -1.421875 
Q 20.359375 -1.421875 13.671875 8.265625 
Q 6.984375 17.96875 6.984375 36.375 
Q 6.984375 53.65625 15.1875 63.9375 
Q 23.390625 74.21875 37.203125 74.21875 
Q 40.921875 74.21875 44.703125 73.484375 
Q 48.484375 72.75 52.59375 71.296875 
z
" id="DejaVuSans-54"/>
      </defs>
      <g transform="translate(197.332045 322.182437)scale(0.1 -0.1)">
       <use xlink:href="#DejaVuSans-54"/>
       <use x="63.623047" xlink:href="#DejaVuSans-48"/>
      </g>
     </g>
    </g>
    <g id="xtick_5">
     <g id="line2d_5">
      <g>
       <use style="stroke:#000000;stroke-width:0.8;" x="246.981818" xlink:href="#m31a30d1a5d" y="307.584"/>
      </g>
     </g>
     <g id="text_5">
      <!-- 80 -->
      <defs>
       <path d="M 31.78125 34.625 
Q 24.75 34.625 20.71875 30.859375 
Q 16.703125 27.09375 16.703125 20.515625 
Q 16.703125 13.921875 20.71875 10.15625 
Q 24.75 6.390625 31.78125 6.390625 
Q 38.8125 6.390625 42.859375 10.171875 
Q 46.921875 13.96875 46.921875 20.515625 
Q 46.921875 27.09375 42.890625 30.859375 
Q 38.875 34.625 31.78125 34.625 
z
M 21.921875 38.8125 
Q 15.578125 40.375 12.03125 44.71875 
Q 8.5 49.078125 8.5 55.328125 
Q 8.5 64.0625 14.71875 69.140625 
Q 20.953125 74.21875 31.78125 74.21875 
Q 42.671875 74.21875 48.875 69.140625 
Q 55.078125 64.0625 55.078125 55.328125 
Q 55.078125 49.078125 51.53125 44.71875 
Q 48 40.375 41.703125 38.8125 
Q 48.828125 37.15625 52.796875 32.3125 
Q 56.78125 27.484375 56.78125 20.515625 
Q 56.78125 9.90625 50.3125 4.234375 
Q 43.84375 -1.421875 31.78125 -1.421875 
Q 19.734375 -1.421875 13.25 4.234375 
Q 6.78125 9.90625 6.78125 20.515625 
Q 6.78125 27.484375 10.78125 32.3125 
Q 14.796875 37.15625 21.921875 38.8125 
z
M 18.3125 54.390625 
Q 18.3125 48.734375 21.84375 45.5625 
Q 25.390625 42.390625 31.78125 42.390625 
Q 38.140625 42.390625 41.71875 45.5625 
Q 45.3125 48.734375 45.3125 54.390625 
Q 45.3125 60.0625 41.71875 63.234375 
Q 38.140625 66.40625 31.78125 66.40625 
Q 25.390625 66.40625 21.84375 63.234375 
Q 18.3125 60.0625 18.3125 54.390625 
z
" id="DejaVuSans-56"/>
      </defs>
      <g transform="translate(240.619318 322.182437)scale(0.1 -0.1)">
       <use xlink:href="#DejaVuSans-56"/>
       <use x="63.623047" xlink:href="#DejaVuSans-48"/>
      </g>
     </g>
    </g>
    <g id="xtick_6">
     <g id="line2d_6">
      <g>
       <use style="stroke:#000000;stroke-width:0.8;" x="290.269091" xlink:href="#m31a30d1a5d" y="307.584"/>
      </g>
     </g>
     <g id="text_6">
      <!-- 100 -->
      <defs>
       <path d="M 12.40625 8.296875 
L 28.515625 8.296875 
L 28.515625 63.921875 
L 10.984375 60.40625 
L 10.984375 69.390625 
L 28.421875 72.90625 
L 38.28125 72.90625 
L 38.28125 8.296875 
L 54.390625 8.296875 
L 54.390625 0 
L 12.40625 0 
z
" id="DejaVuSans-49"/>
      </defs>
      <g transform="translate(280.725341 322.182437)scale(0.1 -0.1)">
       <use xlink:href="#DejaVuSans-49"/>
       <use x="63.623047" xlink:href="#DejaVuSans-48"/>
       <use x="127.246094" xlink:href="#DejaVuSans-48"/>
      </g>
     </g>
    </g>
    <g id="xtick_7">
     <g id="line2d_7">
      <g>
       <use style="stroke:#000000;stroke-width:0.8;" x="333.556364" xlink:href="#m31a30d1a5d" y="307.584"/>
      </g>
     </g>
     <g id="text_7">
      <!-- 120 -->
      <g transform="translate(324.012614 322.182437)scale(0.1 -0.1)">
       <use xlink:href="#DejaVuSans-49"/>
       <use x="63.623047" xlink:href="#DejaVuSans-50"/>
       <use x="127.246094" xlink:href="#DejaVuSans-48"/>
      </g>
     </g>
    </g>
    <g id="xtick_8">
     <g id="line2d_8">
      <g>
       <use style="stroke:#000000;stroke-width:0.8;" x="376.843636" xlink:href="#m31a30d1a5d" y="307.584"/>
      </g>
     </g>
     <g id="text_8">
      <!-- 140 -->
      <g transform="translate(367.299886 322.182437)scale(0.1 -0.1)">
       <use xlink:href="#DejaVuSans-49"/>
       <use x="63.623047" xlink:href="#DejaVuSans-52"/>
       <use x="127.246094" xlink:href="#DejaVuSans-48"/>
      </g>
     </g>
    </g>
    <g id="text_9">
     <!-- # of Generation -->
     <defs>
      <path d="M 51.125 44 
L 36.921875 44 
L 32.8125 27.6875 
L 47.125 27.6875 
z
M 43.796875 71.78125 
L 38.71875 51.515625 
L 52.984375 51.515625 
L 58.109375 71.78125 
L 65.921875 71.78125 
L 60.890625 51.515625 
L 76.125 51.515625 
L 76.125 44 
L 58.984375 44 
L 54.984375 27.6875 
L 70.515625 27.6875 
L 70.515625 20.21875 
L 53.078125 20.21875 
L 48 0 
L 40.1875 0 
L 45.21875 20.21875 
L 30.90625 20.21875 
L 25.875 0 
L 18.015625 0 
L 23.09375 20.21875 
L 7.71875 20.21875 
L 7.71875 27.6875 
L 24.90625 27.6875 
L 29 44 
L 13.28125 44 
L 13.28125 51.515625 
L 30.90625 51.515625 
L 35.890625 71.78125 
z
" id="DejaVuSans-35"/>
      <path id="DejaVuSans-32"/>
      <path d="M 30.609375 48.390625 
Q 23.390625 48.390625 19.1875 42.75 
Q 14.984375 37.109375 14.984375 27.296875 
Q 14.984375 17.484375 19.15625 11.84375 
Q 23.34375 6.203125 30.609375 6.203125 
Q 37.796875 6.203125 41.984375 11.859375 
Q 46.1875 17.53125 46.1875 27.296875 
Q 46.1875 37.015625 41.984375 42.703125 
Q 37.796875 48.390625 30.609375 48.390625 
z
M 30.609375 56 
Q 42.328125 56 49.015625 48.375 
Q 55.71875 40.765625 55.71875 27.296875 
Q 55.71875 13.875 49.015625 6.21875 
Q 42.328125 -1.421875 30.609375 -1.421875 
Q 18.84375 -1.421875 12.171875 6.21875 
Q 5.515625 13.875 5.515625 27.296875 
Q 5.515625 40.765625 12.171875 48.375 
Q 18.84375 56 30.609375 56 
z
" id="DejaVuSans-111"/>
      <path d="M 37.109375 75.984375 
L 37.109375 68.5 
L 28.515625 68.5 
Q 23.6875 68.5 21.796875 66.546875 
Q 19.921875 64.59375 19.921875 59.515625 
L 19.921875 54.6875 
L 34.71875 54.6875 
L 34.71875 47.703125 
L 19.921875 47.703125 
L 19.921875 0 
L 10.890625 0 
L 10.890625 47.703125 
L 2.296875 47.703125 
L 2.296875 54.6875 
L 10.890625 54.6875 
L 10.890625 58.5 
Q 10.890625 67.625 15.140625 71.796875 
Q 19.390625 75.984375 28.609375 75.984375 
z
" id="DejaVuSans-102"/>
      <path d="M 59.515625 10.40625 
L 59.515625 29.984375 
L 43.40625 29.984375 
L 43.40625 38.09375 
L 69.28125 38.09375 
L 69.28125 6.78125 
Q 63.578125 2.734375 56.6875 0.65625 
Q 49.8125 -1.421875 42 -1.421875 
Q 24.90625 -1.421875 15.25 8.5625 
Q 5.609375 18.5625 5.609375 36.375 
Q 5.609375 54.25 15.25 64.234375 
Q 24.90625 74.21875 42 74.21875 
Q 49.125 74.21875 55.546875 72.453125 
Q 61.96875 70.703125 67.390625 67.28125 
L 67.390625 56.78125 
Q 61.921875 61.421875 55.765625 63.765625 
Q 49.609375 66.109375 42.828125 66.109375 
Q 29.4375 66.109375 22.71875 58.640625 
Q 16.015625 51.171875 16.015625 36.375 
Q 16.015625 21.625 22.71875 14.15625 
Q 29.4375 6.6875 42.828125 6.6875 
Q 48.046875 6.6875 52.140625 7.59375 
Q 56.25 8.5 59.515625 10.40625 
z
" id="DejaVuSans-71"/>
      <path d="M 56.203125 29.59375 
L 56.203125 25.203125 
L 14.890625 25.203125 
Q 15.484375 15.921875 20.484375 11.0625 
Q 25.484375 6.203125 34.421875 6.203125 
Q 39.59375 6.203125 44.453125 7.46875 
Q 49.3125 8.734375 54.109375 11.28125 
L 54.109375 2.78125 
Q 49.265625 0.734375 44.1875 -0.34375 
Q 39.109375 -1.421875 33.890625 -1.421875 
Q 20.796875 -1.421875 13.15625 6.1875 
Q 5.515625 13.8125 5.515625 26.8125 
Q 5.515625 40.234375 12.765625 48.109375 
Q 20.015625 56 32.328125 56 
Q 43.359375 56 49.78125 48.890625 
Q 56.203125 41.796875 56.203125 29.59375 
z
M 47.21875 32.234375 
Q 47.125 39.59375 43.09375 43.984375 
Q 39.0625 48.390625 32.421875 48.390625 
Q 24.90625 48.390625 20.390625 44.140625 
Q 15.875 39.890625 15.1875 32.171875 
z
" id="DejaVuSans-101"/>
      <path d="M 54.890625 33.015625 
L 54.890625 0 
L 45.90625 0 
L 45.90625 32.71875 
Q 45.90625 40.484375 42.875 44.328125 
Q 39.84375 48.1875 33.796875 48.1875 
Q 26.515625 48.1875 22.3125 43.546875 
Q 18.109375 38.921875 18.109375 30.90625 
L 18.109375 0 
L 9.078125 0 
L 9.078125 54.6875 
L 18.109375 54.6875 
L 18.109375 46.1875 
Q 21.34375 51.125 25.703125 53.5625 
Q 30.078125 56 35.796875 56 
Q 45.21875 56 50.046875 50.171875 
Q 54.890625 44.34375 54.890625 33.015625 
z
" id="DejaVuSans-110"/>
      <path d="M 41.109375 46.296875 
Q 39.59375 47.171875 37.8125 47.578125 
Q 36.03125 48 33.890625 48 
Q 26.265625 48 22.1875 43.046875 
Q 18.109375 38.09375 18.109375 28.8125 
L 18.109375 0 
L 9.078125 0 
L 9.078125 54.6875 
L 18.109375 54.6875 
L 18.109375 46.1875 
Q 20.953125 51.171875 25.484375 53.578125 
Q 30.03125 56 36.53125 56 
Q 37.453125 56 38.578125 55.875 
Q 39.703125 55.765625 41.0625 55.515625 
z
" id="DejaVuSans-114"/>
      <path d="M 34.28125 27.484375 
Q 23.390625 27.484375 19.1875 25 
Q 14.984375 22.515625 14.984375 16.5 
Q 14.984375 11.71875 18.140625 8.90625 
Q 21.296875 6.109375 26.703125 6.109375 
Q 34.1875 6.109375 38.703125 11.40625 
Q 43.21875 16.703125 43.21875 25.484375 
L 43.21875 27.484375 
z
M 52.203125 31.203125 
L 52.203125 0 
L 43.21875 0 
L 43.21875 8.296875 
Q 40.140625 3.328125 35.546875 0.953125 
Q 30.953125 -1.421875 24.3125 -1.421875 
Q 15.921875 -1.421875 10.953125 3.296875 
Q 6 8.015625 6 15.921875 
Q 6 25.140625 12.171875 29.828125 
Q 18.359375 34.515625 30.609375 34.515625 
L 43.21875 34.515625 
L 43.21875 35.40625 
Q 43.21875 41.609375 39.140625 45 
Q 35.0625 48.390625 27.6875 48.390625 
Q 23 48.390625 18.546875 47.265625 
Q 14.109375 46.140625 10.015625 43.890625 
L 10.015625 52.203125 
Q 14.9375 54.109375 19.578125 55.046875 
Q 24.21875 56 28.609375 56 
Q 40.484375 56 46.34375 49.84375 
Q 52.203125 43.703125 52.203125 31.203125 
z
" id="DejaVuSans-97"/>
      <path d="M 18.3125 70.21875 
L 18.3125 54.6875 
L 36.8125 54.6875 
L 36.8125 47.703125 
L 18.3125 47.703125 
L 18.3125 18.015625 
Q 18.3125 11.328125 20.140625 9.421875 
Q 21.96875 7.515625 27.59375 7.515625 
L 36.8125 7.515625 
L 36.8125 0 
L 27.59375 0 
Q 17.1875 0 13.234375 3.875 
Q 9.28125 7.765625 9.28125 18.015625 
L 9.28125 47.703125 
L 2.6875 47.703125 
L 2.6875 54.6875 
L 9.28125 54.6875 
L 9.28125 70.21875 
z
" id="DejaVuSans-116"/>
      <path d="M 9.421875 54.6875 
L 18.40625 54.6875 
L 18.40625 0 
L 9.421875 0 
z
M 9.421875 75.984375 
L 18.40625 75.984375 
L 18.40625 64.59375 
L 9.421875 64.59375 
z
" id="DejaVuSans-105"/>
     </defs>
     <g transform="translate(196.079531 335.860562)scale(0.1 -0.1)">
      <use xlink:href="#DejaVuSans-35"/>
      <use x="83.789062" xlink:href="#DejaVuSans-32"/>
      <use x="115.576172" xlink:href="#DejaVuSans-111"/>
      <use x="176.757812" xlink:href="#DejaVuSans-102"/>
      <use x="211.962891" xlink:href="#DejaVuSans-32"/>
      <use x="243.75" xlink:href="#DejaVuSans-71"/>
      <use x="321.240234" xlink:href="#DejaVuSans-101"/>
      <use x="382.763672" xlink:href="#DejaVuSans-110"/>
      <use x="446.142578" xlink:href="#DejaVuSans-101"/>
      <use x="507.666016" xlink:href="#DejaVuSans-114"/>
      <use x="548.779297" xlink:href="#DejaVuSans-97"/>
      <use x="610.058594" xlink:href="#DejaVuSans-116"/>
      <use x="649.267578" xlink:href="#DejaVuSans-105"/>
      <use x="677.050781" xlink:href="#DejaVuSans-111"/>
      <use x="738.232422" xlink:href="#DejaVuSans-110"/>
     </g>
    </g>
   </g>
   <g id="matplotlib.axis_2">
    <g id="ytick_1">
     <g id="line2d_9">
      <defs>
       <path d="M 0 0 
L -3.5 0 
" id="meacdc033e2" style="stroke:#000000;stroke-width:0.8;"/>
      </defs>
      <g>
       <use style="stroke:#000000;stroke-width:0.8;" x="57.6" xlink:href="#meacdc033e2" y="278.980294"/>
      </g>
     </g>
     <g id="text_10">
      <!-- 0.010 -->
      <defs>
       <path d="M 10.6875 12.40625 
L 21 12.40625 
L 21 0 
L 10.6875 0 
z
" id="DejaVuSans-46"/>
      </defs>
      <g transform="translate(21.971875 282.779513)scale(0.1 -0.1)">
       <use xlink:href="#DejaVuSans-48"/>
       <use x="63.623047" xlink:href="#DejaVuSans-46"/>
       <use x="95.410156" xlink:href="#DejaVuSans-48"/>
       <use x="159.033203" xlink:href="#DejaVuSans-49"/>
       <use x="222.65625" xlink:href="#DejaVuSans-48"/>
      </g>
     </g>
    </g>
    <g id="ytick_2">
     <g id="line2d_10">
      <g>
       <use style="stroke:#000000;stroke-width:0.8;" x="57.6" xlink:href="#meacdc033e2" y="243.588931"/>
      </g>
     </g>
     <g id="text_11">
      <!-- 0.015 -->
      <defs>
       <path d="M 10.796875 72.90625 
L 49.515625 72.90625 
L 49.515625 64.59375 
L 19.828125 64.59375 
L 19.828125 46.734375 
Q 21.96875 47.46875 24.109375 47.828125 
Q 26.265625 48.1875 28.421875 48.1875 
Q 40.625 48.1875 47.75 41.5 
Q 54.890625 34.8125 54.890625 23.390625 
Q 54.890625 11.625 47.5625 5.09375 
Q 40.234375 -1.421875 26.90625 -1.421875 
Q 22.3125 -1.421875 17.546875 -0.640625 
Q 12.796875 0.140625 7.71875 1.703125 
L 7.71875 11.625 
Q 12.109375 9.234375 16.796875 8.0625 
Q 21.484375 6.890625 26.703125 6.890625 
Q 35.15625 6.890625 40.078125 11.328125 
Q 45.015625 15.765625 45.015625 23.390625 
Q 45.015625 31 40.078125 35.4375 
Q 35.15625 39.890625 26.703125 39.890625 
Q 22.75 39.890625 18.8125 39.015625 
Q 14.890625 38.140625 10.796875 36.28125 
z
" id="DejaVuSans-53"/>
      </defs>
      <g transform="translate(21.971875 247.38815)scale(0.1 -0.1)">
       <use xlink:href="#DejaVuSans-48"/>
       <use x="63.623047" xlink:href="#DejaVuSans-46"/>
       <use x="95.410156" xlink:href="#DejaVuSans-48"/>
       <use x="159.033203" xlink:href="#DejaVuSans-49"/>
       <use x="222.65625" xlink:href="#DejaVuSans-53"/>
      </g>
     </g>
    </g>
    <g id="ytick_3">
     <g id="line2d_11">
      <g>
       <use style="stroke:#000000;stroke-width:0.8;" x="57.6" xlink:href="#meacdc033e2" y="208.197568"/>
      </g>
     </g>
     <g id="text_12">
      <!-- 0.020 -->
      <g transform="translate(21.971875 211.996786)scale(0.1 -0.1)">
       <use xlink:href="#DejaVuSans-48"/>
       <use x="63.623047" xlink:href="#DejaVuSans-46"/>
       <use x="95.410156" xlink:href="#DejaVuSans-48"/>
       <use x="159.033203" xlink:href="#DejaVuSans-50"/>
       <use x="222.65625" xlink:href="#DejaVuSans-48"/>
      </g>
     </g>
    </g>
    <g id="ytick_4">
     <g id="line2d_12">
      <g>
       <use style="stroke:#000000;stroke-width:0.8;" x="57.6" xlink:href="#meacdc033e2" y="172.806204"/>
      </g>
     </g>
     <g id="text_13">
      <!-- 0.025 -->
      <g transform="translate(21.971875 176.605423)scale(0.1 -0.1)">
       <use xlink:href="#DejaVuSans-48"/>
       <use x="63.623047" xlink:href="#DejaVuSans-46"/>
       <use x="95.410156" xlink:href="#DejaVuSans-48"/>
       <use x="159.033203" xlink:href="#DejaVuSans-50"/>
       <use x="222.65625" xlink:href="#DejaVuSans-53"/>
      </g>
     </g>
    </g>
    <g id="ytick_5">
     <g id="line2d_13">
      <g>
       <use style="stroke:#000000;stroke-width:0.8;" x="57.6" xlink:href="#meacdc033e2" y="137.414841"/>
      </g>
     </g>
     <g id="text_14">
      <!-- 0.030 -->
      <defs>
       <path d="M 40.578125 39.3125 
Q 47.65625 37.796875 51.625 33 
Q 55.609375 28.21875 55.609375 21.1875 
Q 55.609375 10.40625 48.1875 4.484375 
Q 40.765625 -1.421875 27.09375 -1.421875 
Q 22.515625 -1.421875 17.65625 -0.515625 
Q 12.796875 0.390625 7.625 2.203125 
L 7.625 11.71875 
Q 11.71875 9.328125 16.59375 8.109375 
Q 21.484375 6.890625 26.8125 6.890625 
Q 36.078125 6.890625 40.9375 10.546875 
Q 45.796875 14.203125 45.796875 21.1875 
Q 45.796875 27.640625 41.28125 31.265625 
Q 36.765625 34.90625 28.71875 34.90625 
L 20.21875 34.90625 
L 20.21875 43.015625 
L 29.109375 43.015625 
Q 36.375 43.015625 40.234375 45.921875 
Q 44.09375 48.828125 44.09375 54.296875 
Q 44.09375 59.90625 40.109375 62.90625 
Q 36.140625 65.921875 28.71875 65.921875 
Q 24.65625 65.921875 20.015625 65.03125 
Q 15.375 64.15625 9.8125 62.3125 
L 9.8125 71.09375 
Q 15.4375 72.65625 20.34375 73.4375 
Q 25.25 74.21875 29.59375 74.21875 
Q 40.828125 74.21875 47.359375 69.109375 
Q 53.90625 64.015625 53.90625 55.328125 
Q 53.90625 49.265625 50.4375 45.09375 
Q 46.96875 40.921875 40.578125 39.3125 
z
" id="DejaVuSans-51"/>
      </defs>
      <g transform="translate(21.971875 141.21406)scale(0.1 -0.1)">
       <use xlink:href="#DejaVuSans-48"/>
       <use x="63.623047" xlink:href="#DejaVuSans-46"/>
       <use x="95.410156" xlink:href="#DejaVuSans-48"/>
       <use x="159.033203" xlink:href="#DejaVuSans-51"/>
       <use x="222.65625" xlink:href="#DejaVuSans-48"/>
      </g>
     </g>
    </g>
    <g id="ytick_6">
     <g id="line2d_14">
      <g>
       <use style="stroke:#000000;stroke-width:0.8;" x="57.6" xlink:href="#meacdc033e2" y="102.023478"/>
      </g>
     </g>
     <g id="text_15">
      <!-- 0.035 -->
      <g transform="translate(21.971875 105.822696)scale(0.1 -0.1)">
       <use xlink:href="#DejaVuSans-48"/>
       <use x="63.623047" xlink:href="#DejaVuSans-46"/>
       <use x="95.410156" xlink:href="#DejaVuSans-48"/>
       <use x="159.033203" xlink:href="#DejaVuSans-51"/>
       <use x="222.65625" xlink:href="#DejaVuSans-53"/>
      </g>
     </g>
    </g>
    <g id="ytick_7">
     <g id="line2d_15">
      <g>
       <use style="stroke:#000000;stroke-width:0.8;" x="57.6" xlink:href="#meacdc033e2" y="66.632114"/>
      </g>
     </g>
     <g id="text_16">
      <!-- 0.040 -->
      <g transform="translate(21.971875 70.431333)scale(0.1 -0.1)">
       <use xlink:href="#DejaVuSans-48"/>
       <use x="63.623047" xlink:href="#DejaVuSans-46"/>
       <use x="95.410156" xlink:href="#DejaVuSans-48"/>
       <use x="159.033203" xlink:href="#DejaVuSans-52"/>
       <use x="222.65625" xlink:href="#DejaVuSans-48"/>
      </g>
     </g>
    </g>
    <g id="text_17">
     <!-- Fitness Of Best Individual (× 1e-3) -->
     <defs>
      <path d="M 9.8125 72.90625 
L 51.703125 72.90625 
L 51.703125 64.59375 
L 19.671875 64.59375 
L 19.671875 43.109375 
L 48.578125 43.109375 
L 48.578125 34.8125 
L 19.671875 34.8125 
L 19.671875 0 
L 9.8125 0 
z
" id="DejaVuSans-70"/>
      <path d="M 44.28125 53.078125 
L 44.28125 44.578125 
Q 40.484375 46.53125 36.375 47.5 
Q 32.28125 48.484375 27.875 48.484375 
Q 21.1875 48.484375 17.84375 46.4375 
Q 14.5 44.390625 14.5 40.28125 
Q 14.5 37.15625 16.890625 35.375 
Q 19.28125 33.59375 26.515625 31.984375 
L 29.59375 31.296875 
Q 39.15625 29.25 43.1875 25.515625 
Q 47.21875 21.78125 47.21875 15.09375 
Q 47.21875 7.46875 41.1875 3.015625 
Q 35.15625 -1.421875 24.609375 -1.421875 
Q 20.21875 -1.421875 15.453125 -0.5625 
Q 10.6875 0.296875 5.421875 2 
L 5.421875 11.28125 
Q 10.40625 8.6875 15.234375 7.390625 
Q 20.0625 6.109375 24.8125 6.109375 
Q 31.15625 6.109375 34.5625 8.28125 
Q 37.984375 10.453125 37.984375 14.40625 
Q 37.984375 18.0625 35.515625 20.015625 
Q 33.0625 21.96875 24.703125 23.78125 
L 21.578125 24.515625 
Q 13.234375 26.265625 9.515625 29.90625 
Q 5.8125 33.546875 5.8125 39.890625 
Q 5.8125 47.609375 11.28125 51.796875 
Q 16.75 56 26.8125 56 
Q 31.78125 56 36.171875 55.265625 
Q 40.578125 54.546875 44.28125 53.078125 
z
" id="DejaVuSans-115"/>
      <path d="M 39.40625 66.21875 
Q 28.65625 66.21875 22.328125 58.203125 
Q 16.015625 50.203125 16.015625 36.375 
Q 16.015625 22.609375 22.328125 14.59375 
Q 28.65625 6.59375 39.40625 6.59375 
Q 50.140625 6.59375 56.421875 14.59375 
Q 62.703125 22.609375 62.703125 36.375 
Q 62.703125 50.203125 56.421875 58.203125 
Q 50.140625 66.21875 39.40625 66.21875 
z
M 39.40625 74.21875 
Q 54.734375 74.21875 63.90625 63.9375 
Q 73.09375 53.65625 73.09375 36.375 
Q 73.09375 19.140625 63.90625 8.859375 
Q 54.734375 -1.421875 39.40625 -1.421875 
Q 24.03125 -1.421875 14.8125 8.828125 
Q 5.609375 19.09375 5.609375 36.375 
Q 5.609375 53.65625 14.8125 63.9375 
Q 24.03125 74.21875 39.40625 74.21875 
z
" id="DejaVuSans-79"/>
      <path d="M 19.671875 34.8125 
L 19.671875 8.109375 
L 35.5 8.109375 
Q 43.453125 8.109375 47.28125 11.40625 
Q 51.125 14.703125 51.125 21.484375 
Q 51.125 28.328125 47.28125 31.5625 
Q 43.453125 34.8125 35.5 34.8125 
z
M 19.671875 64.796875 
L 19.671875 42.828125 
L 34.28125 42.828125 
Q 41.5 42.828125 45.03125 45.53125 
Q 48.578125 48.25 48.578125 53.8125 
Q 48.578125 59.328125 45.03125 62.0625 
Q 41.5 64.796875 34.28125 64.796875 
z
M 9.8125 72.90625 
L 35.015625 72.90625 
Q 46.296875 72.90625 52.390625 68.21875 
Q 58.5 63.53125 58.5 54.890625 
Q 58.5 48.1875 55.375 44.234375 
Q 52.25 40.28125 46.1875 39.3125 
Q 53.46875 37.75 57.5 32.78125 
Q 61.53125 27.828125 61.53125 20.40625 
Q 61.53125 10.640625 54.890625 5.3125 
Q 48.25 0 35.984375 0 
L 9.8125 0 
z
" id="DejaVuSans-66"/>
      <path d="M 9.8125 72.90625 
L 19.671875 72.90625 
L 19.671875 0 
L 9.8125 0 
z
" id="DejaVuSans-73"/>
      <path d="M 45.40625 46.390625 
L 45.40625 75.984375 
L 54.390625 75.984375 
L 54.390625 0 
L 45.40625 0 
L 45.40625 8.203125 
Q 42.578125 3.328125 38.25 0.953125 
Q 33.9375 -1.421875 27.875 -1.421875 
Q 17.96875 -1.421875 11.734375 6.484375 
Q 5.515625 14.40625 5.515625 27.296875 
Q 5.515625 40.1875 11.734375 48.09375 
Q 17.96875 56 27.875 56 
Q 33.9375 56 38.25 53.625 
Q 42.578125 51.265625 45.40625 46.390625 
z
M 14.796875 27.296875 
Q 14.796875 17.390625 18.875 11.75 
Q 22.953125 6.109375 30.078125 6.109375 
Q 37.203125 6.109375 41.296875 11.75 
Q 45.40625 17.390625 45.40625 27.296875 
Q 45.40625 37.203125 41.296875 42.84375 
Q 37.203125 48.484375 30.078125 48.484375 
Q 22.953125 48.484375 18.875 42.84375 
Q 14.796875 37.203125 14.796875 27.296875 
z
" id="DejaVuSans-100"/>
      <path d="M 2.984375 54.6875 
L 12.5 54.6875 
L 29.59375 8.796875 
L 46.6875 54.6875 
L 56.203125 54.6875 
L 35.6875 0 
L 23.484375 0 
z
" id="DejaVuSans-118"/>
      <path d="M 8.5 21.578125 
L 8.5 54.6875 
L 17.484375 54.6875 
L 17.484375 21.921875 
Q 17.484375 14.15625 20.5 10.265625 
Q 23.53125 6.390625 29.59375 6.390625 
Q 36.859375 6.390625 41.078125 11.03125 
Q 45.3125 15.671875 45.3125 23.6875 
L 45.3125 54.6875 
L 54.296875 54.6875 
L 54.296875 0 
L 45.3125 0 
L 45.3125 8.40625 
Q 42.046875 3.421875 37.71875 1 
Q 33.40625 -1.421875 27.6875 -1.421875 
Q 18.265625 -1.421875 13.375 4.4375 
Q 8.5 10.296875 8.5 21.578125 
z
M 31.109375 56 
z
" id="DejaVuSans-117"/>
      <path d="M 9.421875 75.984375 
L 18.40625 75.984375 
L 18.40625 0 
L 9.421875 0 
z
" id="DejaVuSans-108"/>
      <path d="M 31 75.875 
Q 24.46875 64.65625 21.28125 53.65625 
Q 18.109375 42.671875 18.109375 31.390625 
Q 18.109375 20.125 21.3125 9.0625 
Q 24.515625 -2 31 -13.1875 
L 23.1875 -13.1875 
Q 15.875 -1.703125 12.234375 9.375 
Q 8.59375 20.453125 8.59375 31.390625 
Q 8.59375 42.28125 12.203125 53.3125 
Q 15.828125 64.359375 23.1875 75.875 
z
" id="DejaVuSans-40"/>
      <path d="M 70.125 53.71875 
L 47.796875 31.296875 
L 70.125 8.984375 
L 64.3125 3.078125 
L 41.890625 25.484375 
L 19.484375 3.078125 
L 13.71875 8.984375 
L 35.984375 31.296875 
L 13.71875 53.71875 
L 19.484375 59.625 
L 41.890625 37.203125 
L 64.3125 59.625 
z
" id="DejaVuSans-215"/>
      <path d="M 4.890625 31.390625 
L 31.203125 31.390625 
L 31.203125 23.390625 
L 4.890625 23.390625 
z
" id="DejaVuSans-45"/>
      <path d="M 8.015625 75.875 
L 15.828125 75.875 
Q 23.140625 64.359375 26.78125 53.3125 
Q 30.421875 42.28125 30.421875 31.390625 
Q 30.421875 20.453125 26.78125 9.375 
Q 23.140625 -1.703125 15.828125 -13.1875 
L 8.015625 -13.1875 
Q 14.5 -2 17.703125 9.0625 
Q 20.90625 20.125 20.90625 31.390625 
Q 20.90625 42.671875 17.703125 53.65625 
Q 14.5 64.65625 8.015625 75.875 
z
" id="DejaVuSans-41"/>
     </defs>
     <g transform="translate(15.892187 260.601437)rotate(-90)scale(0.1 -0.1)">
      <use xlink:href="#DejaVuSans-70"/>
      <use x="57.410156" xlink:href="#DejaVuSans-105"/>
      <use x="85.193359" xlink:href="#DejaVuSans-116"/>
      <use x="124.402344" xlink:href="#DejaVuSans-110"/>
      <use x="187.78125" xlink:href="#DejaVuSans-101"/>
      <use x="249.304688" xlink:href="#DejaVuSans-115"/>
      <use x="301.404297" xlink:href="#DejaVuSans-115"/>
      <use x="353.503906" xlink:href="#DejaVuSans-32"/>
      <use x="385.291016" xlink:href="#DejaVuSans-79"/>
      <use x="464.001953" xlink:href="#DejaVuSans-102"/>
      <use x="499.207031" xlink:href="#DejaVuSans-32"/>
      <use x="530.994141" xlink:href="#DejaVuSans-66"/>
      <use x="599.597656" xlink:href="#DejaVuSans-101"/>
      <use x="661.121094" xlink:href="#DejaVuSans-115"/>
      <use x="713.220703" xlink:href="#DejaVuSans-116"/>
      <use x="752.429688" xlink:href="#DejaVuSans-32"/>
      <use x="784.216797" xlink:href="#DejaVuSans-73"/>
      <use x="813.708984" xlink:href="#DejaVuSans-110"/>
      <use x="877.087891" xlink:href="#DejaVuSans-100"/>
      <use x="940.564453" xlink:href="#DejaVuSans-105"/>
      <use x="968.347656" xlink:href="#DejaVuSans-118"/>
      <use x="1027.527344" xlink:href="#DejaVuSans-105"/>
      <use x="1055.310547" xlink:href="#DejaVuSans-100"/>
      <use x="1118.787109" xlink:href="#DejaVuSans-117"/>
      <use x="1182.166016" xlink:href="#DejaVuSans-97"/>
      <use x="1243.445312" xlink:href="#DejaVuSans-108"/>
      <use x="1271.228516" xlink:href="#DejaVuSans-32"/>
      <use x="1303.015625" xlink:href="#DejaVuSans-40"/>
      <use x="1342.029297" xlink:href="#DejaVuSans-215"/>
      <use x="1425.818359" xlink:href="#DejaVuSans-32"/>
      <use x="1457.605469" xlink:href="#DejaVuSans-49"/>
      <use x="1521.228516" xlink:href="#DejaVuSans-101"/>
      <use x="1582.751953" xlink:href="#DejaVuSans-45"/>
      <use x="1618.835938" xlink:href="#DejaVuSans-51"/>
      <use x="1682.458984" xlink:href="#DejaVuSans-41"/>
     </g>
    </g>
   </g>
   <g id="line2d_16">
    <path clip-path="url(#p482fb41fa5)" d="M 73.832727 295.488 
L 75.997091 294.111557 
L 78.161455 289.871519 
L 80.325818 286.192315 
L 84.654545 279.810483 
L 86.818909 277.659865 
L 88.983273 275.245585 
L 95.476364 269.254367 
L 97.640727 267.620718 
L 99.805091 265.063861 
L 104.133818 260.743944 
L 106.298182 259.229987 
L 112.791273 254.161776 
L 117.12 250.640634 
L 123.613091 245.25392 
L 127.941818 241.473335 
L 134.434909 235.436108 
L 138.763636 231.152482 
L 145.256727 224.362755 
L 151.749818 217.07401 
L 156.078545 211.913209 
L 162.571636 203.737397 
L 166.900364 197.993734 
L 173.393455 188.941416 
L 179.886545 179.287123 
L 184.215273 172.530338 
L 188.544 165.473398 
L 195.037091 154.239949 
L 205.858909 134.726179 
L 218.845091 110.580323 
L 227.502545 94.744639 
L 229.666909 90.795154 
L 233.995636 84.049877 
L 236.16 80.925155 
L 238.324364 78.18886 
L 240.488727 75.647872 
L 246.981818 68.704081 
L 251.310545 65.638346 
L 257.803636 61.683226 
L 262.132364 59.937691 
L 264.296727 58.895841 
L 266.461091 58.477645 
L 268.625455 57.593174 
L 270.789818 57.33232 
L 272.954182 56.271469 
L 275.118545 56.035021 
L 277.282909 55.58016 
L 281.611636 55.364883 
L 283.776 55.178615 
L 288.104727 54.335968 
L 290.269091 54.317145 
L 292.433455 54.128818 
L 294.597818 54.128818 
L 296.762182 53.997186 
L 398.487273 53.568 
L 398.487273 53.568 
" style="fill:none;stroke:#1f77b4;stroke-linecap:square;stroke-width:1.5;"/>
   </g>
   <g id="patch_3">
    <path d="M 57.6 307.584 
L 57.6 41.472 
" style="fill:none;stroke:#000000;stroke-linecap:square;stroke-linejoin:miter;stroke-width:0.8;"/>
   </g>
   <g id="patch_4">
    <path d="M 414.72 307.584 
L 414.72 41.472 
" style="fill:none;stroke:#000000;stroke-linecap:square;stroke-linejoin:miter;stroke-width:0.8;"/>
   </g>
   <g id="patch_5">
    <path d="M 57.6 307.584 
L 414.72 307.584 
" style="fill:none;stroke:#000000;stroke-linecap:square;stroke-linejoin:miter;stroke-width:0.8;"/>
   </g>
   <g id="patch_6">
    <path d="M 57.6 41.472 
L 414.72 41.472 
" style="fill:none;stroke:#000000;stroke-linecap:square;stroke-linejoin:miter;stroke-width:0.8;"/>
   </g>
  </g>
  <g id="axes_2">
   <g id="matplotlib.axis_3">
    <g id="ytick_8">
     <g id="line2d_17">
      <defs>
       <path d="M 0 0 
L 3.5 0 
" id="m106619f635" style="stroke:#000000;stroke-width:0.8;"/>
      </defs>
      <g>
       <use style="stroke:#000000;stroke-width:0.8;" x="414.72" xlink:href="#m106619f635" y="295.488"/>
      </g>
     </g>
     <g id="text_18">
      <!-- 0.0 -->
      <g transform="translate(421.72 299.287219)scale(0.1 -0.1)">
       <use xlink:href="#DejaVuSans-48"/>
       <use x="63.623047" xlink:href="#DejaVuSans-46"/>
       <use x="95.410156" xlink:href="#DejaVuSans-48"/>
      </g>
     </g>
    </g>
    <g id="ytick_9">
     <g id="line2d_18">
      <g>
       <use style="stroke:#000000;stroke-width:0.8;" x="414.72" xlink:href="#m106619f635" y="247.104"/>
      </g>
     </g>
     <g id="text_19">
      <!-- 0.2 -->
      <g transform="translate(421.72 250.903219)scale(0.1 -0.1)">
       <use xlink:href="#DejaVuSans-48"/>
       <use x="63.623047" xlink:href="#DejaVuSans-46"/>
       <use x="95.410156" xlink:href="#DejaVuSans-50"/>
      </g>
     </g>
    </g>
    <g id="ytick_10">
     <g id="line2d_19">
      <g>
       <use style="stroke:#000000;stroke-width:0.8;" x="414.72" xlink:href="#m106619f635" y="198.72"/>
      </g>
     </g>
     <g id="text_20">
      <!-- 0.4 -->
      <g transform="translate(421.72 202.519219)scale(0.1 -0.1)">
       <use xlink:href="#DejaVuSans-48"/>
       <use x="63.623047" xlink:href="#DejaVuSans-46"/>
       <use x="95.410156" xlink:href="#DejaVuSans-52"/>
      </g>
     </g>
    </g>
    <g id="ytick_11">
     <g id="line2d_20">
      <g>
       <use style="stroke:#000000;stroke-width:0.8;" x="414.72" xlink:href="#m106619f635" y="150.336"/>
      </g>
     </g>
     <g id="text_21">
      <!-- 0.6 -->
      <g transform="translate(421.72 154.135219)scale(0.1 -0.1)">
       <use xlink:href="#DejaVuSans-48"/>
       <use x="63.623047" xlink:href="#DejaVuSans-46"/>
       <use x="95.410156" xlink:href="#DejaVuSans-54"/>
      </g>
     </g>
    </g>
    <g id="ytick_12">
     <g id="line2d_21">
      <g>
       <use style="stroke:#000000;stroke-width:0.8;" x="414.72" xlink:href="#m106619f635" y="101.952"/>
      </g>
     </g>
     <g id="text_22">
      <!-- 0.8 -->
      <g transform="translate(421.72 105.751219)scale(0.1 -0.1)">
       <use xlink:href="#DejaVuSans-48"/>
       <use x="63.623047" xlink:href="#DejaVuSans-46"/>
       <use x="95.410156" xlink:href="#DejaVuSans-56"/>
      </g>
     </g>
    </g>
    <g id="ytick_13">
     <g id="line2d_22">
      <g>
       <use style="stroke:#000000;stroke-width:0.8;" x="414.72" xlink:href="#m106619f635" y="53.568"/>
      </g>
     </g>
     <g id="text_23">
      <!-- 1.0 -->
      <g transform="translate(421.72 57.367219)scale(0.1 -0.1)">
       <use xlink:href="#DejaVuSans-49"/>
       <use x="63.623047" xlink:href="#DejaVuSans-46"/>
       <use x="95.410156" xlink:href="#DejaVuSans-48"/>
      </g>
     </g>
    </g>
    <g id="text_24">
     <!-- Diversity Metric -->
     <defs>
      <path d="M 19.671875 64.796875 
L 19.671875 8.109375 
L 31.59375 8.109375 
Q 46.6875 8.109375 53.6875 14.9375 
Q 60.6875 21.78125 60.6875 36.53125 
Q 60.6875 51.171875 53.6875 57.984375 
Q 46.6875 64.796875 31.59375 64.796875 
z
M 9.8125 72.90625 
L 30.078125 72.90625 
Q 51.265625 72.90625 61.171875 64.09375 
Q 71.09375 55.28125 71.09375 36.53125 
Q 71.09375 17.671875 61.125 8.828125 
Q 51.171875 0 30.078125 0 
L 9.8125 0 
z
" id="DejaVuSans-68"/>
      <path d="M 32.171875 -5.078125 
Q 28.375 -14.84375 24.75 -17.8125 
Q 21.140625 -20.796875 15.09375 -20.796875 
L 7.90625 -20.796875 
L 7.90625 -13.28125 
L 13.1875 -13.28125 
Q 16.890625 -13.28125 18.9375 -11.515625 
Q 21 -9.765625 23.484375 -3.21875 
L 25.09375 0.875 
L 2.984375 54.6875 
L 12.5 54.6875 
L 29.59375 11.921875 
L 46.6875 54.6875 
L 56.203125 54.6875 
z
" id="DejaVuSans-121"/>
      <path d="M 9.8125 72.90625 
L 24.515625 72.90625 
L 43.109375 23.296875 
L 61.8125 72.90625 
L 76.515625 72.90625 
L 76.515625 0 
L 66.890625 0 
L 66.890625 64.015625 
L 48.09375 14.015625 
L 38.1875 14.015625 
L 19.390625 64.015625 
L 19.390625 0 
L 9.8125 0 
z
" id="DejaVuSans-77"/>
      <path d="M 48.78125 52.59375 
L 48.78125 44.1875 
Q 44.96875 46.296875 41.140625 47.34375 
Q 37.3125 48.390625 33.40625 48.390625 
Q 24.65625 48.390625 19.8125 42.84375 
Q 14.984375 37.3125 14.984375 27.296875 
Q 14.984375 17.28125 19.8125 11.734375 
Q 24.65625 6.203125 33.40625 6.203125 
Q 37.3125 6.203125 41.140625 7.25 
Q 44.96875 8.296875 48.78125 10.40625 
L 48.78125 2.09375 
Q 45.015625 0.34375 40.984375 -0.53125 
Q 36.96875 -1.421875 32.421875 -1.421875 
Q 20.0625 -1.421875 12.78125 6.34375 
Q 5.515625 14.109375 5.515625 27.296875 
Q 5.515625 40.671875 12.859375 48.328125 
Q 20.21875 56 33.015625 56 
Q 37.15625 56 41.109375 55.140625 
Q 45.0625 54.296875 48.78125 52.59375 
z
" id="DejaVuSans-99"/>
     </defs>
     <g transform="translate(449.221563 213.905344)rotate(-90)scale(0.1 -0.1)">
      <use xlink:href="#DejaVuSans-68"/>
      <use x="77.001953" xlink:href="#DejaVuSans-105"/>
      <use x="104.785156" xlink:href="#DejaVuSans-118"/>
      <use x="163.964844" xlink:href="#DejaVuSans-101"/>
      <use x="225.488281" xlink:href="#DejaVuSans-114"/>
      <use x="266.601562" xlink:href="#DejaVuSans-115"/>
      <use x="318.701172" xlink:href="#DejaVuSans-105"/>
      <use x="346.484375" xlink:href="#DejaVuSans-116"/>
      <use x="385.693359" xlink:href="#DejaVuSans-121"/>
      <use x="444.873047" xlink:href="#DejaVuSans-32"/>
      <use x="476.660156" xlink:href="#DejaVuSans-77"/>
      <use x="562.939453" xlink:href="#DejaVuSans-101"/>
      <use x="624.462891" xlink:href="#DejaVuSans-116"/>
      <use x="663.671875" xlink:href="#DejaVuSans-114"/>
      <use x="704.785156" xlink:href="#DejaVuSans-105"/>
      <use x="732.568359" xlink:href="#DejaVuSans-99"/>
     </g>
    </g>
   </g>
   <g id="line2d_23">
    <path clip-path="url(#p482fb41fa5)" d="M 73.832727 53.568 
L 80.325818 53.568 
L 82.490182 62.76096 
L 84.654545 57.43872 
L 86.818909 78.72768 
L 88.983273 82.11456 
L 91.147636 82.35648 
L 93.312 100.25856 
L 95.476364 101.952 
L 97.640727 116.70912 
L 101.969455 105.82272 
L 104.133818 97.1136 
L 106.298182 118.16064 
L 108.462545 104.3712 
L 110.626909 119.12832 
L 112.791273 108 
L 114.955636 110.17728 
L 117.12 113.08032 
L 119.284364 105.09696 
L 121.448727 96.38784 
L 123.613091 95.904 
L 125.777455 98.56512 
L 127.941818 99.04896 
L 130.106182 98.80704 
L 132.270545 95.904 
L 134.434909 100.50048 
L 136.599273 95.904 
L 138.763636 93.4848 
L 140.928 96.87168 
L 143.092364 102.43584 
L 145.256727 103.40352 
L 147.421091 97.59744 
L 149.585455 95.17824 
L 151.749818 99.29088 
L 153.914182 101.22624 
L 156.078545 94.21056 
L 158.242909 93.00096 
L 160.407273 91.30752 
L 162.571636 93.24288 
L 164.736 93.96864 
L 166.900364 93.24288 
L 169.064727 94.45248 
L 171.229091 96.38784 
L 173.393455 104.85504 
L 175.557818 96.38784 
L 177.722182 95.42016 
L 179.886545 97.59744 
L 182.050909 94.45248 
L 184.215273 96.87168 
L 186.379636 96.14592 
L 188.544 97.59744 
L 190.708364 93.24288 
L 192.872727 89.856 
L 195.037091 85.74336 
L 197.201455 87.19488 
L 199.365818 90.09792 
L 201.530182 103.40352 
L 205.858909 93.72672 
L 208.023273 88.16256 
L 210.187636 89.61408 
L 212.352 90.09792 
L 214.516364 85.50144 
L 216.680727 87.92064 
L 218.845091 88.16256 
L 221.009455 88.6464 
L 223.173818 88.40448 
L 225.338182 90.09792 
L 227.502545 85.0176 
L 229.666909 83.56608 
L 231.831273 83.56608 
L 233.995636 93.24288 
L 236.16 96.62976 
L 238.324364 98.08128 
L 240.488727 101.71008 
L 242.653091 105.09696 
L 244.817455 102.67776 
L 246.981818 105.33888 
L 249.146182 96.95232 
L 251.310545 109.69344 
L 253.474909 102.83904 
L 255.639273 104.93568 
L 257.803636 108.4032 
L 259.968 110.90304 
L 262.132364 115.90272 
L 264.296727 117.2736 
L 266.461091 116.83008 
L 268.625455 130.0752 
L 270.789818 124.97472 
L 272.954182 135.514368 
L 275.118545 128.07936 
L 277.282909 138.836736 
L 279.447273 134.82288 
L 281.611636 145.39008 
L 283.776 138.718656 
L 285.940364 140.49737 
L 288.104727 140.345664 
L 290.269091 133.90416 
L 292.433455 134.394336 
L 294.597818 127.378159 
L 296.762182 132.53808 
L 298.926545 129.736677 
L 301.090909 129.882153 
L 303.255273 130.563249 
L 305.419636 132.752096 
L 307.584 128.7137 
L 309.748364 131.119276 
L 311.912727 132.291127 
L 314.077091 130.77194 
L 316.241455 132.512791 
L 320.570182 131.648394 
L 322.734545 131.469774 
L 324.898909 131.099363 
L 327.063273 131.088336 
L 329.227636 131.270617 
L 331.392 131.615803 
L 337.885091 131.845312 
L 342.213818 132.148442 
L 346.542545 132.227021 
L 348.706909 132.473676 
L 350.871273 132.402233 
L 355.2 133.075427 
L 359.528727 133.340286 
L 366.021818 134.516255 
L 370.350545 134.795025 
L 374.679273 135.039826 
L 381.172364 134.614722 
L 387.665455 134.777251 
L 396.322909 135.598954 
L 398.487273 135.755654 
L 398.487273 135.755654 
" style="fill:none;stroke:#ff0000;stroke-linecap:square;stroke-width:1.5;"/>
   </g>
   <g id="line2d_24">
    <path clip-path="url(#p482fb41fa5)" d="M 73.832727 295.488 
L 218.845091 295.488 
L 221.009455 294.52032 
L 223.173818 293.0688 
L 225.338182 293.31072 
L 227.502545 293.31072 
L 229.666909 289.19808 
L 231.831273 292.82688 
L 233.995636 281.94048 
L 236.16 272.74752 
L 238.324364 267.42528 
L 240.488727 258.71616 
L 242.653091 240.33024 
L 244.817455 232.22592 
L 246.981818 228.3552 
L 249.146182 237.66912 
L 251.310545 215.00928 
L 253.474909 211.54176 
L 255.639273 202.26816 
L 257.803636 198.72 
L 259.968 186.78528 
L 262.132364 181.14048 
L 264.296727 163.88352 
L 266.461091 181.90656 
L 268.625455 138.11904 
L 270.789818 156.14208 
L 272.954182 143.11872 
L 275.118545 148.78368 
L 277.282909 126.220032 
L 279.447273 130.38768 
L 281.611636 96.80448 
L 283.776 109.263744 
L 285.940364 100.406644 
L 288.104727 94.125696 
L 290.269091 109.247668 
L 292.433455 106.629408 
L 294.597818 98.872652 
L 296.762182 86.03112 
L 298.926545 87.780035 
L 301.090909 82.454793 
L 303.255273 78.420847 
L 305.419636 69.885278 
L 307.584 76.260262 
L 309.748364 71.525034 
L 311.912727 68.643448 
L 314.077091 69.558514 
L 316.241455 64.254219 
L 318.405818 66.071326 
L 320.570182 67.008987 
L 322.734545 67.029133 
L 324.898909 65.45517 
L 327.063273 63.426444 
L 329.227636 62.476654 
L 331.392 61.325803 
L 333.556364 62.368534 
L 335.720727 63.01337 
L 337.885091 63.039378 
L 340.049455 62.624749 
L 342.213818 62.082091 
L 344.378182 61.977316 
L 346.542545 61.383359 
L 350.871273 60.492476 
L 353.035636 59.203796 
L 355.2 59.201072 
L 357.364364 58.883956 
L 359.528727 59.129368 
L 363.857455 57.829144 
L 366.021818 58.345644 
L 368.186182 58.63112 
L 370.350545 58.703831 
L 372.514909 59.404009 
L 374.679273 59.847357 
L 376.843636 60.533508 
L 379.008 60.282089 
L 381.172364 59.686247 
L 385.501091 58.936148 
L 387.665455 57.77314 
L 391.994182 57.784523 
L 394.158545 58.08282 
L 396.322909 57.613263 
L 398.487273 57.294825 
L 398.487273 57.294825 
" style="fill:none;stroke:#800080;stroke-dasharray:5.55,2.4;stroke-dashoffset:0;stroke-width:1.5;"/>
    <defs>
     <path d="M 0 -3 
L -2.85317 -0.927051 
L -1.763356 2.427051 
L 1.763356 2.427051 
L 2.85317 -0.927051 
z
" id="m34d3a4ebfe" style="stroke:#800080;stroke-linejoin:miter;"/>
    </defs>
    <g clip-path="url(#p482fb41fa5)">
     <use style="fill:#800080;stroke:#800080;stroke-linejoin:miter;" x="73.832727" xlink:href="#m34d3a4ebfe" y="295.488"/>
     <use style="fill:#800080;stroke:#800080;stroke-linejoin:miter;" x="75.997091" xlink:href="#m34d3a4ebfe" y="295.488"/>
     <use style="fill:#800080;stroke:#800080;stroke-linejoin:miter;" x="78.161455" xlink:href="#m34d3a4ebfe" y="295.488"/>
     <use style="fill:#800080;stroke:#800080;stroke-linejoin:miter;" x="80.325818" xlink:href="#m34d3a4ebfe" y="295.488"/>
     <use style="fill:#800080;stroke:#800080;stroke-linejoin:miter;" x="82.490182" xlink:href="#m34d3a4ebfe" y="295.488"/>
     <use style="fill:#800080;stroke:#800080;stroke-linejoin:miter;" x="84.654545" xlink:href="#m34d3a4ebfe" y="295.488"/>
     <use style="fill:#800080;stroke:#800080;stroke-linejoin:miter;" x="86.818909" xlink:href="#m34d3a4ebfe" y="295.488"/>
     <use style="fill:#800080;stroke:#800080;stroke-linejoin:miter;" x="88.983273" xlink:href="#m34d3a4ebfe" y="295.488"/>
     <use style="fill:#800080;stroke:#800080;stroke-linejoin:miter;" x="91.147636" xlink:href="#m34d3a4ebfe" y="295.488"/>
     <use style="fill:#800080;stroke:#800080;stroke-linejoin:miter;" x="93.312" xlink:href="#m34d3a4ebfe" y="295.488"/>
     <use style="fill:#800080;stroke:#800080;stroke-linejoin:miter;" x="95.476364" xlink:href="#m34d3a4ebfe" y="295.488"/>
     <use style="fill:#800080;stroke:#800080;stroke-linejoin:miter;" x="97.640727" xlink:href="#m34d3a4ebfe" y="295.488"/>
     <use style="fill:#800080;stroke:#800080;stroke-linejoin:miter;" x="99.805091" xlink:href="#m34d3a4ebfe" y="295.488"/>
     <use style="fill:#800080;stroke:#800080;stroke-linejoin:miter;" x="101.969455" xlink:href="#m34d3a4ebfe" y="295.488"/>
     <use style="fill:#800080;stroke:#800080;stroke-linejoin:miter;" x="104.133818" xlink:href="#m34d3a4ebfe" y="295.488"/>
     <use style="fill:#800080;stroke:#800080;stroke-linejoin:miter;" x="106.298182" xlink:href="#m34d3a4ebfe" y="295.488"/>
     <use style="fill:#800080;stroke:#800080;stroke-linejoin:miter;" x="108.462545" xlink:href="#m34d3a4ebfe" y="295.488"/>
     <use style="fill:#800080;stroke:#800080;stroke-linejoin:miter;" x="110.626909" xlink:href="#m34d3a4ebfe" y="295.488"/>
     <use style="fill:#800080;stroke:#800080;stroke-linejoin:miter;" x="112.791273" xlink:href="#m34d3a4ebfe" y="295.488"/>
     <use style="fill:#800080;stroke:#800080;stroke-linejoin:miter;" x="114.955636" xlink:href="#m34d3a4ebfe" y="295.488"/>
     <use style="fill:#800080;stroke:#800080;stroke-linejoin:miter;" x="117.12" xlink:href="#m34d3a4ebfe" y="295.488"/>
     <use style="fill:#800080;stroke:#800080;stroke-linejoin:miter;" x="119.284364" xlink:href="#m34d3a4ebfe" y="295.488"/>
     <use style="fill:#800080;stroke:#800080;stroke-linejoin:miter;" x="121.448727" xlink:href="#m34d3a4ebfe" y="295.488"/>
     <use style="fill:#800080;stroke:#800080;stroke-linejoin:miter;" x="123.613091" xlink:href="#m34d3a4ebfe" y="295.488"/>
     <use style="fill:#800080;stroke:#800080;stroke-linejoin:miter;" x="125.777455" xlink:href="#m34d3a4ebfe" y="295.488"/>
     <use style="fill:#800080;stroke:#800080;stroke-linejoin:miter;" x="127.941818" xlink:href="#m34d3a4ebfe" y="295.488"/>
     <use style="fill:#800080;stroke:#800080;stroke-linejoin:miter;" x="130.106182" xlink:href="#m34d3a4ebfe" y="295.488"/>
     <use style="fill:#800080;stroke:#800080;stroke-linejoin:miter;" x="132.270545" xlink:href="#m34d3a4ebfe" y="295.488"/>
     <use style="fill:#800080;stroke:#800080;stroke-linejoin:miter;" x="134.434909" xlink:href="#m34d3a4ebfe" y="295.488"/>
     <use style="fill:#800080;stroke:#800080;stroke-linejoin:miter;" x="136.599273" xlink:href="#m34d3a4ebfe" y="295.488"/>
     <use style="fill:#800080;stroke:#800080;stroke-linejoin:miter;" x="138.763636" xlink:href="#m34d3a4ebfe" y="295.488"/>
     <use style="fill:#800080;stroke:#800080;stroke-linejoin:miter;" x="140.928" xlink:href="#m34d3a4ebfe" y="295.488"/>
     <use style="fill:#800080;stroke:#800080;stroke-linejoin:miter;" x="143.092364" xlink:href="#m34d3a4ebfe" y="295.488"/>
     <use style="fill:#800080;stroke:#800080;stroke-linejoin:miter;" x="145.256727" xlink:href="#m34d3a4ebfe" y="295.488"/>
     <use style="fill:#800080;stroke:#800080;stroke-linejoin:miter;" x="147.421091" xlink:href="#m34d3a4ebfe" y="295.488"/>
     <use style="fill:#800080;stroke:#800080;stroke-linejoin:miter;" x="149.585455" xlink:href="#m34d3a4ebfe" y="295.488"/>
     <use style="fill:#800080;stroke:#800080;stroke-linejoin:miter;" x="151.749818" xlink:href="#m34d3a4ebfe" y="295.488"/>
     <use style="fill:#800080;stroke:#800080;stroke-linejoin:miter;" x="153.914182" xlink:href="#m34d3a4ebfe" y="295.488"/>
     <use style="fill:#800080;stroke:#800080;stroke-linejoin:miter;" x="156.078545" xlink:href="#m34d3a4ebfe" y="295.488"/>
     <use style="fill:#800080;stroke:#800080;stroke-linejoin:miter;" x="158.242909" xlink:href="#m34d3a4ebfe" y="295.488"/>
     <use style="fill:#800080;stroke:#800080;stroke-linejoin:miter;" x="160.407273" xlink:href="#m34d3a4ebfe" y="295.488"/>
     <use style="fill:#800080;stroke:#800080;stroke-linejoin:miter;" x="162.571636" xlink:href="#m34d3a4ebfe" y="295.488"/>
     <use style="fill:#800080;stroke:#800080;stroke-linejoin:miter;" x="164.736" xlink:href="#m34d3a4ebfe" y="295.488"/>
     <use style="fill:#800080;stroke:#800080;stroke-linejoin:miter;" x="166.900364" xlink:href="#m34d3a4ebfe" y="295.488"/>
     <use style="fill:#800080;stroke:#800080;stroke-linejoin:miter;" x="169.064727" xlink:href="#m34d3a4ebfe" y="295.488"/>
     <use style="fill:#800080;stroke:#800080;stroke-linejoin:miter;" x="171.229091" xlink:href="#m34d3a4ebfe" y="295.488"/>
     <use style="fill:#800080;stroke:#800080;stroke-linejoin:miter;" x="173.393455" xlink:href="#m34d3a4ebfe" y="295.488"/>
     <use style="fill:#800080;stroke:#800080;stroke-linejoin:miter;" x="175.557818" xlink:href="#m34d3a4ebfe" y="295.488"/>
     <use style="fill:#800080;stroke:#800080;stroke-linejoin:miter;" x="177.722182" xlink:href="#m34d3a4ebfe" y="295.488"/>
     <use style="fill:#800080;stroke:#800080;stroke-linejoin:miter;" x="179.886545" xlink:href="#m34d3a4ebfe" y="295.488"/>
     <use style="fill:#800080;stroke:#800080;stroke-linejoin:miter;" x="182.050909" xlink:href="#m34d3a4ebfe" y="295.488"/>
     <use style="fill:#800080;stroke:#800080;stroke-linejoin:miter;" x="184.215273" xlink:href="#m34d3a4ebfe" y="295.488"/>
     <use style="fill:#800080;stroke:#800080;stroke-linejoin:miter;" x="186.379636" xlink:href="#m34d3a4ebfe" y="295.488"/>
     <use style="fill:#800080;stroke:#800080;stroke-linejoin:miter;" x="188.544" xlink:href="#m34d3a4ebfe" y="295.488"/>
     <use style="fill:#800080;stroke:#800080;stroke-linejoin:miter;" x="190.708364" xlink:href="#m34d3a4ebfe" y="295.488"/>
     <use style="fill:#800080;stroke:#800080;stroke-linejoin:miter;" x="192.872727" xlink:href="#m34d3a4ebfe" y="295.488"/>
     <use style="fill:#800080;stroke:#800080;stroke-linejoin:miter;" x="195.037091" xlink:href="#m34d3a4ebfe" y="295.488"/>
     <use style="fill:#800080;stroke:#800080;stroke-linejoin:miter;" x="197.201455" xlink:href="#m34d3a4ebfe" y="295.488"/>
     <use style="fill:#800080;stroke:#800080;stroke-linejoin:miter;" x="199.365818" xlink:href="#m34d3a4ebfe" y="295.488"/>
     <use style="fill:#800080;stroke:#800080;stroke-linejoin:miter;" x="201.530182" xlink:href="#m34d3a4ebfe" y="295.488"/>
     <use style="fill:#800080;stroke:#800080;stroke-linejoin:miter;" x="203.694545" xlink:href="#m34d3a4ebfe" y="295.488"/>
     <use style="fill:#800080;stroke:#800080;stroke-linejoin:miter;" x="205.858909" xlink:href="#m34d3a4ebfe" y="295.488"/>
     <use style="fill:#800080;stroke:#800080;stroke-linejoin:miter;" x="208.023273" xlink:href="#m34d3a4ebfe" y="295.488"/>
     <use style="fill:#800080;stroke:#800080;stroke-linejoin:miter;" x="210.187636" xlink:href="#m34d3a4ebfe" y="295.488"/>
     <use style="fill:#800080;stroke:#800080;stroke-linejoin:miter;" x="212.352" xlink:href="#m34d3a4ebfe" y="295.488"/>
     <use style="fill:#800080;stroke:#800080;stroke-linejoin:miter;" x="214.516364" xlink:href="#m34d3a4ebfe" y="295.488"/>
     <use style="fill:#800080;stroke:#800080;stroke-linejoin:miter;" x="216.680727" xlink:href="#m34d3a4ebfe" y="295.488"/>
     <use style="fill:#800080;stroke:#800080;stroke-linejoin:miter;" x="218.845091" xlink:href="#m34d3a4ebfe" y="295.488"/>
     <use style="fill:#800080;stroke:#800080;stroke-linejoin:miter;" x="221.009455" xlink:href="#m34d3a4ebfe" y="294.52032"/>
     <use style="fill:#800080;stroke:#800080;stroke-linejoin:miter;" x="223.173818" xlink:href="#m34d3a4ebfe" y="293.0688"/>
     <use style="fill:#800080;stroke:#800080;stroke-linejoin:miter;" x="225.338182" xlink:href="#m34d3a4ebfe" y="293.31072"/>
     <use style="fill:#800080;stroke:#800080;stroke-linejoin:miter;" x="227.502545" xlink:href="#m34d3a4ebfe" y="293.31072"/>
     <use style="fill:#800080;stroke:#800080;stroke-linejoin:miter;" x="229.666909" xlink:href="#m34d3a4ebfe" y="289.19808"/>
     <use style="fill:#800080;stroke:#800080;stroke-linejoin:miter;" x="231.831273" xlink:href="#m34d3a4ebfe" y="292.82688"/>
     <use style="fill:#800080;stroke:#800080;stroke-linejoin:miter;" x="233.995636" xlink:href="#m34d3a4ebfe" y="281.94048"/>
     <use style="fill:#800080;stroke:#800080;stroke-linejoin:miter;" x="236.16" xlink:href="#m34d3a4ebfe" y="272.74752"/>
     <use style="fill:#800080;stroke:#800080;stroke-linejoin:miter;" x="238.324364" xlink:href="#m34d3a4ebfe" y="267.42528"/>
     <use style="fill:#800080;stroke:#800080;stroke-linejoin:miter;" x="240.488727" xlink:href="#m34d3a4ebfe" y="258.71616"/>
     <use style="fill:#800080;stroke:#800080;stroke-linejoin:miter;" x="242.653091" xlink:href="#m34d3a4ebfe" y="240.33024"/>
     <use style="fill:#800080;stroke:#800080;stroke-linejoin:miter;" x="244.817455" xlink:href="#m34d3a4ebfe" y="232.22592"/>
     <use style="fill:#800080;stroke:#800080;stroke-linejoin:miter;" x="246.981818" xlink:href="#m34d3a4ebfe" y="228.3552"/>
     <use style="fill:#800080;stroke:#800080;stroke-linejoin:miter;" x="249.146182" xlink:href="#m34d3a4ebfe" y="237.66912"/>
     <use style="fill:#800080;stroke:#800080;stroke-linejoin:miter;" x="251.310545" xlink:href="#m34d3a4ebfe" y="215.00928"/>
     <use style="fill:#800080;stroke:#800080;stroke-linejoin:miter;" x="253.474909" xlink:href="#m34d3a4ebfe" y="211.54176"/>
     <use style="fill:#800080;stroke:#800080;stroke-linejoin:miter;" x="255.639273" xlink:href="#m34d3a4ebfe" y="202.26816"/>
     <use style="fill:#800080;stroke:#800080;stroke-linejoin:miter;" x="257.803636" xlink:href="#m34d3a4ebfe" y="198.72"/>
     <use style="fill:#800080;stroke:#800080;stroke-linejoin:miter;" x="259.968" xlink:href="#m34d3a4ebfe" y="186.78528"/>
     <use style="fill:#800080;stroke:#800080;stroke-linejoin:miter;" x="262.132364" xlink:href="#m34d3a4ebfe" y="181.14048"/>
     <use style="fill:#800080;stroke:#800080;stroke-linejoin:miter;" x="264.296727" xlink:href="#m34d3a4ebfe" y="163.88352"/>
     <use style="fill:#800080;stroke:#800080;stroke-linejoin:miter;" x="266.461091" xlink:href="#m34d3a4ebfe" y="181.90656"/>
     <use style="fill:#800080;stroke:#800080;stroke-linejoin:miter;" x="268.625455" xlink:href="#m34d3a4ebfe" y="138.11904"/>
     <use style="fill:#800080;stroke:#800080;stroke-linejoin:miter;" x="270.789818" xlink:href="#m34d3a4ebfe" y="156.14208"/>
     <use style="fill:#800080;stroke:#800080;stroke-linejoin:miter;" x="272.954182" xlink:href="#m34d3a4ebfe" y="143.11872"/>
     <use style="fill:#800080;stroke:#800080;stroke-linejoin:miter;" x="275.118545" xlink:href="#m34d3a4ebfe" y="148.78368"/>
     <use style="fill:#800080;stroke:#800080;stroke-linejoin:miter;" x="277.282909" xlink:href="#m34d3a4ebfe" y="126.220032"/>
     <use style="fill:#800080;stroke:#800080;stroke-linejoin:miter;" x="279.447273" xlink:href="#m34d3a4ebfe" y="130.38768"/>
     <use style="fill:#800080;stroke:#800080;stroke-linejoin:miter;" x="281.611636" xlink:href="#m34d3a4ebfe" y="96.80448"/>
     <use style="fill:#800080;stroke:#800080;stroke-linejoin:miter;" x="283.776" xlink:href="#m34d3a4ebfe" y="109.263744"/>
     <use style="fill:#800080;stroke:#800080;stroke-linejoin:miter;" x="285.940364" xlink:href="#m34d3a4ebfe" y="100.406644"/>
     <use style="fill:#800080;stroke:#800080;stroke-linejoin:miter;" x="288.104727" xlink:href="#m34d3a4ebfe" y="94.125696"/>
     <use style="fill:#800080;stroke:#800080;stroke-linejoin:miter;" x="290.269091" xlink:href="#m34d3a4ebfe" y="109.247668"/>
     <use style="fill:#800080;stroke:#800080;stroke-linejoin:miter;" x="292.433455" xlink:href="#m34d3a4ebfe" y="106.629408"/>
     <use style="fill:#800080;stroke:#800080;stroke-linejoin:miter;" x="294.597818" xlink:href="#m34d3a4ebfe" y="98.872652"/>
     <use style="fill:#800080;stroke:#800080;stroke-linejoin:miter;" x="296.762182" xlink:href="#m34d3a4ebfe" y="86.03112"/>
     <use style="fill:#800080;stroke:#800080;stroke-linejoin:miter;" x="298.926545" xlink:href="#m34d3a4ebfe" y="87.780035"/>
     <use style="fill:#800080;stroke:#800080;stroke-linejoin:miter;" x="301.090909" xlink:href="#m34d3a4ebfe" y="82.454793"/>
     <use style="fill:#800080;stroke:#800080;stroke-linejoin:miter;" x="303.255273" xlink:href="#m34d3a4ebfe" y="78.420847"/>
     <use style="fill:#800080;stroke:#800080;stroke-linejoin:miter;" x="305.419636" xlink:href="#m34d3a4ebfe" y="69.885278"/>
     <use style="fill:#800080;stroke:#800080;stroke-linejoin:miter;" x="307.584" xlink:href="#m34d3a4ebfe" y="76.260262"/>
     <use style="fill:#800080;stroke:#800080;stroke-linejoin:miter;" x="309.748364" xlink:href="#m34d3a4ebfe" y="71.525034"/>
     <use style="fill:#800080;stroke:#800080;stroke-linejoin:miter;" x="311.912727" xlink:href="#m34d3a4ebfe" y="68.643448"/>
     <use style="fill:#800080;stroke:#800080;stroke-linejoin:miter;" x="314.077091" xlink:href="#m34d3a4ebfe" y="69.558514"/>
     <use style="fill:#800080;stroke:#800080;stroke-linejoin:miter;" x="316.241455" xlink:href="#m34d3a4ebfe" y="64.254219"/>
     <use style="fill:#800080;stroke:#800080;stroke-linejoin:miter;" x="318.405818" xlink:href="#m34d3a4ebfe" y="66.071326"/>
     <use style="fill:#800080;stroke:#800080;stroke-linejoin:miter;" x="320.570182" xlink:href="#m34d3a4ebfe" y="67.008987"/>
     <use style="fill:#800080;stroke:#800080;stroke-linejoin:miter;" x="322.734545" xlink:href="#m34d3a4ebfe" y="67.029133"/>
     <use style="fill:#800080;stroke:#800080;stroke-linejoin:miter;" x="324.898909" xlink:href="#m34d3a4ebfe" y="65.45517"/>
     <use style="fill:#800080;stroke:#800080;stroke-linejoin:miter;" x="327.063273" xlink:href="#m34d3a4ebfe" y="63.426444"/>
     <use style="fill:#800080;stroke:#800080;stroke-linejoin:miter;" x="329.227636" xlink:href="#m34d3a4ebfe" y="62.476654"/>
     <use style="fill:#800080;stroke:#800080;stroke-linejoin:miter;" x="331.392" xlink:href="#m34d3a4ebfe" y="61.325803"/>
     <use style="fill:#800080;stroke:#800080;stroke-linejoin:miter;" x="333.556364" xlink:href="#m34d3a4ebfe" y="62.368534"/>
     <use style="fill:#800080;stroke:#800080;stroke-linejoin:miter;" x="335.720727" xlink:href="#m34d3a4ebfe" y="63.01337"/>
     <use style="fill:#800080;stroke:#800080;stroke-linejoin:miter;" x="337.885091" xlink:href="#m34d3a4ebfe" y="63.039378"/>
     <use style="fill:#800080;stroke:#800080;stroke-linejoin:miter;" x="340.049455" xlink:href="#m34d3a4ebfe" y="62.624749"/>
     <use style="fill:#800080;stroke:#800080;stroke-linejoin:miter;" x="342.213818" xlink:href="#m34d3a4ebfe" y="62.082091"/>
     <use style="fill:#800080;stroke:#800080;stroke-linejoin:miter;" x="344.378182" xlink:href="#m34d3a4ebfe" y="61.977316"/>
     <use style="fill:#800080;stroke:#800080;stroke-linejoin:miter;" x="346.542545" xlink:href="#m34d3a4ebfe" y="61.383359"/>
     <use style="fill:#800080;stroke:#800080;stroke-linejoin:miter;" x="348.706909" xlink:href="#m34d3a4ebfe" y="60.941452"/>
     <use style="fill:#800080;stroke:#800080;stroke-linejoin:miter;" x="350.871273" xlink:href="#m34d3a4ebfe" y="60.492476"/>
     <use style="fill:#800080;stroke:#800080;stroke-linejoin:miter;" x="353.035636" xlink:href="#m34d3a4ebfe" y="59.203796"/>
     <use style="fill:#800080;stroke:#800080;stroke-linejoin:miter;" x="355.2" xlink:href="#m34d3a4ebfe" y="59.201072"/>
     <use style="fill:#800080;stroke:#800080;stroke-linejoin:miter;" x="357.364364" xlink:href="#m34d3a4ebfe" y="58.883956"/>
     <use style="fill:#800080;stroke:#800080;stroke-linejoin:miter;" x="359.528727" xlink:href="#m34d3a4ebfe" y="59.129368"/>
     <use style="fill:#800080;stroke:#800080;stroke-linejoin:miter;" x="361.693091" xlink:href="#m34d3a4ebfe" y="58.472679"/>
     <use style="fill:#800080;stroke:#800080;stroke-linejoin:miter;" x="363.857455" xlink:href="#m34d3a4ebfe" y="57.829144"/>
     <use style="fill:#800080;stroke:#800080;stroke-linejoin:miter;" x="366.021818" xlink:href="#m34d3a4ebfe" y="58.345644"/>
     <use style="fill:#800080;stroke:#800080;stroke-linejoin:miter;" x="368.186182" xlink:href="#m34d3a4ebfe" y="58.63112"/>
     <use style="fill:#800080;stroke:#800080;stroke-linejoin:miter;" x="370.350545" xlink:href="#m34d3a4ebfe" y="58.703831"/>
     <use style="fill:#800080;stroke:#800080;stroke-linejoin:miter;" x="372.514909" xlink:href="#m34d3a4ebfe" y="59.404009"/>
     <use style="fill:#800080;stroke:#800080;stroke-linejoin:miter;" x="374.679273" xlink:href="#m34d3a4ebfe" y="59.847357"/>
     <use style="fill:#800080;stroke:#800080;stroke-linejoin:miter;" x="376.843636" xlink:href="#m34d3a4ebfe" y="60.533508"/>
     <use style="fill:#800080;stroke:#800080;stroke-linejoin:miter;" x="379.008" xlink:href="#m34d3a4ebfe" y="60.282089"/>
     <use style="fill:#800080;stroke:#800080;stroke-linejoin:miter;" x="381.172364" xlink:href="#m34d3a4ebfe" y="59.686247"/>
     <use style="fill:#800080;stroke:#800080;stroke-linejoin:miter;" x="383.336727" xlink:href="#m34d3a4ebfe" y="59.335966"/>
     <use style="fill:#800080;stroke:#800080;stroke-linejoin:miter;" x="385.501091" xlink:href="#m34d3a4ebfe" y="58.936148"/>
     <use style="fill:#800080;stroke:#800080;stroke-linejoin:miter;" x="387.665455" xlink:href="#m34d3a4ebfe" y="57.77314"/>
     <use style="fill:#800080;stroke:#800080;stroke-linejoin:miter;" x="389.829818" xlink:href="#m34d3a4ebfe" y="57.81213"/>
     <use style="fill:#800080;stroke:#800080;stroke-linejoin:miter;" x="391.994182" xlink:href="#m34d3a4ebfe" y="57.784523"/>
     <use style="fill:#800080;stroke:#800080;stroke-linejoin:miter;" x="394.158545" xlink:href="#m34d3a4ebfe" y="58.08282"/>
     <use style="fill:#800080;stroke:#800080;stroke-linejoin:miter;" x="396.322909" xlink:href="#m34d3a4ebfe" y="57.613263"/>
     <use style="fill:#800080;stroke:#800080;stroke-linejoin:miter;" x="398.487273" xlink:href="#m34d3a4ebfe" y="57.294825"/>
    </g>
   </g>
   <g id="patch_7">
    <path d="M 57.6 307.584 
L 57.6 41.472 
" style="fill:none;stroke:#000000;stroke-linecap:square;stroke-linejoin:miter;stroke-width:0.8;"/>
   </g>
   <g id="patch_8">
    <path d="M 414.72 307.584 
L 414.72 41.472 
" style="fill:none;stroke:#000000;stroke-linecap:square;stroke-linejoin:miter;stroke-width:0.8;"/>
   </g>
   <g id="patch_9">
    <path d="M 57.6 307.584 
L 414.72 307.584 
" style="fill:none;stroke:#000000;stroke-linecap:square;stroke-linejoin:miter;stroke-width:0.8;"/>
   </g>
   <g id="patch_10">
    <path d="M 57.6 41.472 
L 414.72 41.472 
" style="fill:none;stroke:#000000;stroke-linecap:square;stroke-linejoin:miter;stroke-width:0.8;"/>
   </g>
  </g>
  <g id="axes_3">
   <g id="matplotlib.axis_4">
    <g id="xtick_9">
     <g id="line2d_25">
      <defs>
       <path d="M 0 0 
L 0 -3.5 
" id="me3f727ccdd" style="stroke:#000000;stroke-width:0.8;"/>
      </defs>
      <g>
       <use style="stroke:#000000;stroke-width:0.8;" x="73.832727" xlink:href="#me3f727ccdd" y="41.472"/>
      </g>
     </g>
     <g id="text_25">
      <!-- 100 -->
      <g transform="translate(66.697048 32.833526)rotate(-10)scale(0.08 -0.08)">
       <use xlink:href="#DejaVuSans-49"/>
       <use x="63.623047" xlink:href="#DejaVuSans-48"/>
       <use x="127.246094" xlink:href="#DejaVuSans-48"/>
      </g>
     </g>
    </g>
    <g id="xtick_10">
     <g id="line2d_26">
      <g>
       <use style="stroke:#000000;stroke-width:0.8;" x="106.298182" xlink:href="#me3f727ccdd" y="41.472"/>
      </g>
     </g>
     <g id="text_26">
      <!-- 46600 -->
      <g transform="translate(94.149832 32.833526)rotate(-10)scale(0.08 -0.08)">
       <use xlink:href="#DejaVuSans-52"/>
       <use x="63.623047" xlink:href="#DejaVuSans-54"/>
       <use x="127.246094" xlink:href="#DejaVuSans-54"/>
       <use x="190.869141" xlink:href="#DejaVuSans-48"/>
       <use x="254.492188" xlink:href="#DejaVuSans-48"/>
      </g>
     </g>
    </g>
    <g id="xtick_11">
     <g id="line2d_27">
      <g>
       <use style="stroke:#000000;stroke-width:0.8;" x="138.763636" xlink:href="#me3f727ccdd" y="41.472"/>
      </g>
     </g>
     <g id="text_27">
      <!-- 93100 -->
      <defs>
       <path d="M 10.984375 1.515625 
L 10.984375 10.5 
Q 14.703125 8.734375 18.5 7.8125 
Q 22.3125 6.890625 25.984375 6.890625 
Q 35.75 6.890625 40.890625 13.453125 
Q 46.046875 20.015625 46.78125 33.40625 
Q 43.953125 29.203125 39.59375 26.953125 
Q 35.25 24.703125 29.984375 24.703125 
Q 19.046875 24.703125 12.671875 31.3125 
Q 6.296875 37.9375 6.296875 49.421875 
Q 6.296875 60.640625 12.9375 67.421875 
Q 19.578125 74.21875 30.609375 74.21875 
Q 43.265625 74.21875 49.921875 64.515625 
Q 56.59375 54.828125 56.59375 36.375 
Q 56.59375 19.140625 48.40625 8.859375 
Q 40.234375 -1.421875 26.421875 -1.421875 
Q 22.703125 -1.421875 18.890625 -0.6875 
Q 15.09375 0.046875 10.984375 1.515625 
z
M 30.609375 32.421875 
Q 37.25 32.421875 41.125 36.953125 
Q 45.015625 41.5 45.015625 49.421875 
Q 45.015625 57.28125 41.125 61.84375 
Q 37.25 66.40625 30.609375 66.40625 
Q 23.96875 66.40625 20.09375 61.84375 
Q 16.21875 57.28125 16.21875 49.421875 
Q 16.21875 41.5 20.09375 36.953125 
Q 23.96875 32.421875 30.609375 32.421875 
z
" id="DejaVuSans-57"/>
      </defs>
      <g transform="translate(126.615286 32.833526)rotate(-10)scale(0.08 -0.08)">
       <use xlink:href="#DejaVuSans-57"/>
       <use x="63.623047" xlink:href="#DejaVuSans-51"/>
       <use x="127.246094" xlink:href="#DejaVuSans-49"/>
       <use x="190.869141" xlink:href="#DejaVuSans-48"/>
       <use x="254.492188" xlink:href="#DejaVuSans-48"/>
      </g>
     </g>
    </g>
    <g id="xtick_12">
     <g id="line2d_28">
      <g>
       <use style="stroke:#000000;stroke-width:0.8;" x="171.229091" xlink:href="#me3f727ccdd" y="41.472"/>
      </g>
     </g>
     <g id="text_28">
      <!-- 139600 -->
      <g transform="translate(156.574405 32.833526)rotate(-10)scale(0.08 -0.08)">
       <use xlink:href="#DejaVuSans-49"/>
       <use x="63.623047" xlink:href="#DejaVuSans-51"/>
       <use x="127.246094" xlink:href="#DejaVuSans-57"/>
       <use x="190.869141" xlink:href="#DejaVuSans-54"/>
       <use x="254.492188" xlink:href="#DejaVuSans-48"/>
       <use x="318.115234" xlink:href="#DejaVuSans-48"/>
      </g>
     </g>
    </g>
    <g id="xtick_13">
     <g id="line2d_29">
      <g>
       <use style="stroke:#000000;stroke-width:0.8;" x="203.694545" xlink:href="#me3f727ccdd" y="41.472"/>
      </g>
     </g>
     <g id="text_29">
      <!-- 186100 -->
      <g transform="translate(189.039859 32.833526)rotate(-10)scale(0.08 -0.08)">
       <use xlink:href="#DejaVuSans-49"/>
       <use x="63.623047" xlink:href="#DejaVuSans-56"/>
       <use x="127.246094" xlink:href="#DejaVuSans-54"/>
       <use x="190.869141" xlink:href="#DejaVuSans-49"/>
       <use x="254.492188" xlink:href="#DejaVuSans-48"/>
       <use x="318.115234" xlink:href="#DejaVuSans-48"/>
      </g>
     </g>
    </g>
    <g id="xtick_14">
     <g id="line2d_30">
      <g>
       <use style="stroke:#000000;stroke-width:0.8;" x="236.16" xlink:href="#me3f727ccdd" y="41.472"/>
      </g>
     </g>
     <g id="text_30">
      <!-- 232600 -->
      <g transform="translate(221.505314 32.833526)rotate(-10)scale(0.08 -0.08)">
       <use xlink:href="#DejaVuSans-50"/>
       <use x="63.623047" xlink:href="#DejaVuSans-51"/>
       <use x="127.246094" xlink:href="#DejaVuSans-50"/>
       <use x="190.869141" xlink:href="#DejaVuSans-54"/>
       <use x="254.492188" xlink:href="#DejaVuSans-48"/>
       <use x="318.115234" xlink:href="#DejaVuSans-48"/>
      </g>
     </g>
    </g>
    <g id="xtick_15">
     <g id="line2d_31">
      <g>
       <use style="stroke:#000000;stroke-width:0.8;" x="268.625455" xlink:href="#me3f727ccdd" y="41.472"/>
      </g>
     </g>
     <g id="text_31">
      <!-- 279310 -->
      <defs>
       <path d="M 8.203125 72.90625 
L 55.078125 72.90625 
L 55.078125 68.703125 
L 28.609375 0 
L 18.3125 0 
L 43.21875 64.59375 
L 8.203125 64.59375 
z
" id="DejaVuSans-55"/>
      </defs>
      <g transform="translate(253.970769 32.833526)rotate(-10)scale(0.08 -0.08)">
       <use xlink:href="#DejaVuSans-50"/>
       <use x="63.623047" xlink:href="#DejaVuSans-55"/>
       <use x="127.246094" xlink:href="#DejaVuSans-57"/>
       <use x="190.869141" xlink:href="#DejaVuSans-51"/>
       <use x="254.492188" xlink:href="#DejaVuSans-49"/>
       <use x="318.115234" xlink:href="#DejaVuSans-48"/>
      </g>
     </g>
    </g>
    <g id="xtick_16">
     <g id="line2d_32">
      <g>
       <use style="stroke:#000000;stroke-width:0.8;" x="301.090909" xlink:href="#me3f727ccdd" y="41.472"/>
      </g>
     </g>
     <g id="text_32">
      <!-- 330740 -->
      <g transform="translate(286.436223 32.833526)rotate(-10)scale(0.08 -0.08)">
       <use xlink:href="#DejaVuSans-51"/>
       <use x="63.623047" xlink:href="#DejaVuSans-51"/>
       <use x="127.246094" xlink:href="#DejaVuSans-48"/>
       <use x="190.869141" xlink:href="#DejaVuSans-55"/>
       <use x="254.492188" xlink:href="#DejaVuSans-52"/>
       <use x="318.115234" xlink:href="#DejaVuSans-48"/>
      </g>
     </g>
    </g>
    <g id="xtick_17">
     <g id="line2d_33">
      <g>
       <use style="stroke:#000000;stroke-width:0.8;" x="333.556364" xlink:href="#me3f727ccdd" y="41.472"/>
      </g>
     </g>
     <g id="text_33">
      <!-- 400080 -->
      <g transform="translate(318.901678 32.833526)rotate(-10)scale(0.08 -0.08)">
       <use xlink:href="#DejaVuSans-52"/>
       <use x="63.623047" xlink:href="#DejaVuSans-48"/>
       <use x="127.246094" xlink:href="#DejaVuSans-48"/>
       <use x="190.869141" xlink:href="#DejaVuSans-48"/>
       <use x="254.492188" xlink:href="#DejaVuSans-56"/>
       <use x="318.115234" xlink:href="#DejaVuSans-48"/>
      </g>
     </g>
    </g>
    <g id="xtick_18">
     <g id="line2d_34">
      <g>
       <use style="stroke:#000000;stroke-width:0.8;" x="366.021818" xlink:href="#me3f727ccdd" y="41.472"/>
      </g>
     </g>
     <g id="text_34">
      <!-- 491730 -->
      <g transform="translate(351.367132 32.833526)rotate(-10)scale(0.08 -0.08)">
       <use xlink:href="#DejaVuSans-52"/>
       <use x="63.623047" xlink:href="#DejaVuSans-57"/>
       <use x="127.246094" xlink:href="#DejaVuSans-49"/>
       <use x="190.869141" xlink:href="#DejaVuSans-55"/>
       <use x="254.492188" xlink:href="#DejaVuSans-51"/>
       <use x="318.115234" xlink:href="#DejaVuSans-48"/>
      </g>
     </g>
    </g>
    <g id="xtick_19">
     <g id="line2d_35">
      <g>
       <use style="stroke:#000000;stroke-width:0.8;" x="398.487273" xlink:href="#me3f727ccdd" y="41.472"/>
      </g>
     </g>
     <g id="text_35">
      <!-- 605880 -->
      <g transform="translate(383.832587 32.833526)rotate(-10)scale(0.08 -0.08)">
       <use xlink:href="#DejaVuSans-54"/>
       <use x="63.623047" xlink:href="#DejaVuSans-48"/>
       <use x="127.246094" xlink:href="#DejaVuSans-53"/>
       <use x="190.869141" xlink:href="#DejaVuSans-56"/>
       <use x="254.492188" xlink:href="#DejaVuSans-56"/>
       <use x="318.115234" xlink:href="#DejaVuSans-48"/>
      </g>
     </g>
    </g>
    <g id="text_36">
     <!-- # of Fitness Evaluation -->
     <defs>
      <path d="M 9.8125 72.90625 
L 55.90625 72.90625 
L 55.90625 64.59375 
L 19.671875 64.59375 
L 19.671875 43.015625 
L 54.390625 43.015625 
L 54.390625 34.71875 
L 19.671875 34.71875 
L 19.671875 8.296875 
L 56.78125 8.296875 
L 56.78125 0 
L 9.8125 0 
z
" id="DejaVuSans-69"/>
     </defs>
     <g transform="translate(178.327187 17.543911)scale(0.1 -0.1)">
      <use xlink:href="#DejaVuSans-35"/>
      <use x="83.789062" xlink:href="#DejaVuSans-32"/>
      <use x="115.576172" xlink:href="#DejaVuSans-111"/>
      <use x="176.757812" xlink:href="#DejaVuSans-102"/>
      <use x="211.962891" xlink:href="#DejaVuSans-32"/>
      <use x="243.75" xlink:href="#DejaVuSans-70"/>
      <use x="301.160156" xlink:href="#DejaVuSans-105"/>
      <use x="328.943359" xlink:href="#DejaVuSans-116"/>
      <use x="368.152344" xlink:href="#DejaVuSans-110"/>
      <use x="431.53125" xlink:href="#DejaVuSans-101"/>
      <use x="493.054688" xlink:href="#DejaVuSans-115"/>
      <use x="545.154297" xlink:href="#DejaVuSans-115"/>
      <use x="597.253906" xlink:href="#DejaVuSans-32"/>
      <use x="629.041016" xlink:href="#DejaVuSans-69"/>
      <use x="692.224609" xlink:href="#DejaVuSans-118"/>
      <use x="751.404297" xlink:href="#DejaVuSans-97"/>
      <use x="812.683594" xlink:href="#DejaVuSans-108"/>
      <use x="840.466797" xlink:href="#DejaVuSans-117"/>
      <use x="903.845703" xlink:href="#DejaVuSans-97"/>
      <use x="965.125" xlink:href="#DejaVuSans-116"/>
      <use x="1004.333984" xlink:href="#DejaVuSans-105"/>
      <use x="1032.117188" xlink:href="#DejaVuSans-111"/>
      <use x="1093.298828" xlink:href="#DejaVuSans-110"/>
     </g>
    </g>
   </g>
   <g id="line2d_36">
    <path clip-path="url(#p482fb41fa5)" d="M 73.832727 295.488 
L 75.997091 294.111557 
L 78.161455 289.871519 
L 80.325818 286.192315 
L 84.654545 279.810483 
L 86.818909 277.659865 
L 88.983273 275.245585 
L 95.476364 269.254367 
L 97.640727 267.620718 
L 99.805091 265.063861 
L 104.133818 260.743944 
L 106.298182 259.229987 
L 112.791273 254.161776 
L 117.12 250.640634 
L 123.613091 245.25392 
L 127.941818 241.473335 
L 134.434909 235.436108 
L 138.763636 231.152482 
L 145.256727 224.362755 
L 151.749818 217.07401 
L 156.078545 211.913209 
L 162.571636 203.737397 
L 166.900364 197.993734 
L 173.393455 188.941416 
L 179.886545 179.287123 
L 184.215273 172.530338 
L 188.544 165.473398 
L 195.037091 154.239949 
L 205.858909 134.726179 
L 218.845091 110.580323 
L 227.502545 94.744639 
L 229.666909 90.795154 
L 233.995636 84.049877 
L 236.16 80.925155 
L 238.324364 78.18886 
L 240.488727 75.647872 
L 246.981818 68.704081 
L 251.310545 65.638346 
L 257.803636 61.683226 
L 262.132364 59.937691 
L 264.296727 58.895841 
L 266.461091 58.477645 
L 268.625455 57.593174 
L 270.789818 57.33232 
L 272.954182 56.271469 
L 275.118545 56.035021 
L 277.282909 55.58016 
L 281.611636 55.364883 
L 283.776 55.178615 
L 288.104727 54.335968 
L 290.269091 54.317145 
L 292.433455 54.128818 
L 294.597818 54.128818 
L 296.762182 53.997186 
L 398.487273 53.568 
L 398.487273 53.568 
" style="fill:none;stroke:#1f77b4;stroke-dasharray:5.55,2.4;stroke-dashoffset:0;stroke-width:1.5;"/>
   </g>
   <g id="patch_11">
    <path d="M 57.6 307.584 
L 57.6 41.472 
" style="fill:none;stroke:#000000;stroke-linecap:square;stroke-linejoin:miter;stroke-width:0.8;"/>
   </g>
   <g id="patch_12">
    <path d="M 414.72 307.584 
L 414.72 41.472 
" style="fill:none;stroke:#000000;stroke-linecap:square;stroke-linejoin:miter;stroke-width:0.8;"/>
   </g>
   <g id="patch_13">
    <path d="M 57.6 307.584 
L 414.72 307.584 
" style="fill:none;stroke:#000000;stroke-linecap:square;stroke-linejoin:miter;stroke-width:0.8;"/>
   </g>
   <g id="patch_14">
    <path d="M 57.6 41.472 
L 414.72 41.472 
" style="fill:none;stroke:#000000;stroke-linecap:square;stroke-linejoin:miter;stroke-width:0.8;"/>
   </g>
   <g id="legend_1">
    <g id="patch_15">
     <path d="M 64.6 93.506375 
L 105.740625 93.506375 
Q 107.740625 93.506375 107.740625 91.506375 
L 107.740625 48.472 
Q 107.740625 46.472 105.740625 46.472 
L 64.6 46.472 
Q 62.6 46.472 62.6 48.472 
L 62.6 91.506375 
Q 62.6 93.506375 64.6 93.506375 
z
" style="fill:#ffffff;opacity:0.8;stroke:#cccccc;stroke-linejoin:miter;"/>
    </g>
    <g id="line2d_37">
     <path d="M 66.6 54.570438 
L 86.6 54.570438 
" style="fill:none;stroke:#1f77b4;stroke-linecap:square;stroke-width:1.5;"/>
    </g>
    <g id="line2d_38"/>
    <g id="text_37">
     <!-- l1 -->
     <g transform="translate(94.6 58.070438)scale(0.1 -0.1)">
      <use xlink:href="#DejaVuSans-108"/>
      <use x="27.783203" xlink:href="#DejaVuSans-49"/>
     </g>
    </g>
    <g id="line2d_39">
     <path d="M 66.6 69.248563 
L 86.6 69.248563 
" style="fill:none;stroke:#ff0000;stroke-linecap:square;stroke-width:1.5;"/>
    </g>
    <g id="line2d_40"/>
    <g id="text_38">
     <!-- l2 -->
     <g transform="translate(94.6 72.748563)scale(0.1 -0.1)">
      <use xlink:href="#DejaVuSans-108"/>
      <use x="27.783203" xlink:href="#DejaVuSans-50"/>
     </g>
    </g>
    <g id="line2d_41">
     <path d="M 66.6 83.926688 
L 86.6 83.926688 
" style="fill:none;stroke:#800080;stroke-dasharray:5.55,2.4;stroke-dashoffset:0;stroke-width:1.5;"/>
    </g>
    <g id="line2d_42">
     <g>
      <use style="fill:#800080;stroke:#800080;stroke-linejoin:miter;" x="76.6" xlink:href="#m34d3a4ebfe" y="83.926688"/>
     </g>
    </g>
    <g id="text_39">
     <!-- l3 -->
     <g transform="translate(94.6 87.426688)scale(0.1 -0.1)">
      <use xlink:href="#DejaVuSans-108"/>
      <use x="27.783203" xlink:href="#DejaVuSans-51"/>
     </g>
    </g>
   </g>
  </g>
 </g>
 <defs>
  <clipPath id="p482fb41fa5">
   <rect height="266.112" width="357.12" x="57.6" y="41.472"/>
  </clipPath>
 </defs>
</svg>
